<svg width="20px" height="20px" viewBox="0 0 500 500" version="1.1" xmlns="http://www.w3.org/2000/svg" xmlns:xlink="http://www.w3.org/1999/xlink">
    <g stroke="none" stroke-width="1" fill="none" fill-rule="evenodd">
        <g id="moon">
            <path d="M146.88,375.528 C273.152,375.528 375.504,273.16 375.504,146.888 C375.504,90.936 355.344,39.752 321.984,0.008 C425.056,33.096 499.696,129.64 499.696,243.704 C499.696,385.096 385.088,499.704 243.696,499.704 C129.632,499.704 33.088,425.064 2.84217094e-14,321.992 C39.744,355.368 90.944,375.528 146.88,375.528 Z" id="Path" fill="#FFD93B"></path>
            <path d="M401.92,42.776 C436.16,86.28 456.736,141.048 456.736,200.728 C456.736,342.12 342.128,456.728 200.736,456.728 C141.056,456.728 86.288,436.152 42.784,401.912 C89.632,461.384 162.128,499.704 243.712,499.704 C385.104,499.704 499.712,385.096 499.712,243.704 C499.712,162.12 461.392,89.64 401.92,42.776 Z" id="Path" fill="#F4C534"></path>
        </g>
    </g>
</svg>
