<?xml version="1.0" encoding="UTF-8"?>
<svg width="100px" height="100px" viewBox="0 0 100 100" version="1.1" xmlns="http://www.w3.org/2000/svg" xmlns:xlink="http://www.w3.org/1999/xlink">
    <!-- Generator: Sketch 46.2 (44496) - http://www.bohemiancoding.com/sketch -->
    <title>Sketch Logo</title>
    <desc>Created with Sketch.</desc>
    <defs>
        <rect id="path-1" x="0" y="0" width="100" height="100"></rect>
    </defs>
    <g id="Page-1" stroke="none" stroke-width="1" fill="none" fill-rule="evenodd">
        <g id="Tablet" transform="translate(-661.000000, -97.000000)">
            <g id="Sketch-Logo" transform="translate(661.000000, 97.000000)">
                <mask id="mask-2" fill="white">
                    <use xlink:href="#path-1"></use>
                </mask>
                <use id="Rectangle-2" fill="#FBFBFB" xlink:href="#path-1"></use>
                <g id="sketch-symbol" mask="url(#mask-2)">
                    <g transform="translate(18.000000, 21.000000)">
                        <polygon id="Shape" fill="#FDB300" fill-rule="nonzero" points="14.1532259 1.93270322 32.4344759 0 50.7157259 1.93270322 64.8689516 20.9321585 32.4344759 58.7017654 0 20.9321585"></polygon>
                        <g id="Group" stroke-width="1" fill="none" fill-rule="evenodd" transform="translate(0.000000, 20.932159)">
                            <polygon id="Shape" fill="#EA6C00" fill-rule="nonzero" points="13.1375888 0 32.4345051 37.7696193 0 0"></polygon>
                            <polygon id="Shape" fill="#EA6C00" fill-rule="nonzero" transform="translate(48.651670, 18.884810) scale(-1, 1) translate(-48.651670, -18.884810) " points="45.5720061 0 64.8689224 37.7696193 32.4344173 0"></polygon>
                            <polygon id="Shape" fill="#FDAD00" fill-rule="nonzero" points="13.1375888 0 51.7314213 0 32.4345051 37.7696193"></polygon>
                        </g>
                        <g id="Group" stroke-width="1" fill="none" fill-rule="evenodd">
                            <polygon id="Shape" fill="#FDD231" fill-rule="nonzero" points="32.4345051 0 14.1531726 1.93267766 13.1375888 20.9321447"></polygon>
                            <polygon id="Shape" fill="#FDD231" fill-rule="nonzero" transform="translate(42.082864, 10.466072) scale(-1, 1) translate(-42.082864, -10.466072) " points="51.7313217 0 33.4499892 1.93267766 32.4344054 20.9321447"></polygon>
                            <polygon id="Shape" fill="#FDAD00" fill-rule="nonzero" transform="translate(57.792336, 11.432411) scale(-1, 1) translate(-57.792336, -11.432411) " points="50.7156673 20.9321447 64.8690049 1.93267766 63.8532561 20.9321447"></polygon>
                            <polygon id="Shape" fill="#FDAD00" fill-rule="nonzero" points="0 20.9321447 14.1531726 1.93267766 13.1375888 20.9321447"></polygon>
                            <polygon id="Shape" fill="#FEEEB7" fill-rule="nonzero" points="32.4345051 0 13.1375888 20.9321447 51.7314213 20.9321447"></polygon>
                        </g>
                    </g>
                </g>
            </g>
        </g>
    </g>
</svg>