<?xml version="1.0" encoding="UTF-8"?>
<svg width="44px" height="47px" viewBox="0 0 44 47" version="1.1" xmlns="http://www.w3.org/2000/svg" xmlns:xlink="http://www.w3.org/1999/xlink">
    <!-- Generator: Sketch 46.2 (44496) - http://www.bohemiancoding.com/sketch -->
    <title>XMLID_725_</title>
    <desc>Created with Sketch.</desc>
    <defs></defs>
    <g id="Page-1" stroke="none" stroke-width="1" fill="none" fill-rule="evenodd">
        <g id="Artboard" transform="translate(-49.000000, -525.000000)">
            <g id="XMLID_725_" transform="translate(49.000000, 525.000000)">
                <ellipse id="XMLID_1186_" fill="#45413C" fill-rule="nonzero" opacity="0.15" cx="22" cy="45.2" rx="19.5" ry="1.5"></ellipse>
                <path d="M40,40.3 C40,42.5 38.2,44.3 36,44.3 L8,44.3 C5.8,44.3 4,42.5 4,40.3 L4,26.8 C4,16.9 12.1,8.8 22,8.8 C31.9,8.8 40,16.9 40,26.8 L40,40.3 Z" id="XMLID_1191_" fill="#DAEDF7" fill-rule="nonzero"></path>
                <path d="M22,8.8 C12.1,8.8 4,16.9 4,26.8 L4,31.8 C4,21.9 12.1,13.8 22,13.8 C31.9,13.8 40,21.9 40,31.8 L40,26.8 C40,16.9 31.9,8.8 22,8.8 Z" id="XMLID_1190_" fill="#FFFFFF" fill-rule="nonzero"></path>
                <path d="M40,40.3 C40,42.5 38.2,44.3 36,44.3 L8,44.3 C5.8,44.3 4,42.5 4,40.3 L4,26.8 C4,16.9 12.1,8.8 22,8.8 C31.9,8.8 40,16.9 40,26.8 L40,40.3 Z" id="XMLID_1189_" stroke="#45413C" stroke-linecap="round" stroke-linejoin="round"></path>
                <path d="M28.5,43.8 C28.5,44.9 27.6,45.8 26.5,45.8 L17.5,45.8 C16.4,45.8 15.5,44.9 15.5,43.8 L15.5,35.8 C15.5,34.7 16.4,33.8 17.5,33.8 L26.5,33.8 C27.6,33.8 28.5,34.7 28.5,35.8 L28.5,43.8 Z" id="XMLID_1188_" fill="#C0DCEB" fill-rule="nonzero"></path>
                <rect id="XMLID_1187_" fill="#ADC4D9" fill-rule="nonzero" x="15.5" y="38.3" width="13" height="2"></rect>
                <polygon id="XMLID_1185_" stroke="#45413C" fill="#ADC4D9" fill-rule="nonzero" stroke-linecap="round" stroke-linejoin="round" points="43.5 36.3 40 38.3 40 25.8 43.5 27.8"></polygon>
                <polygon id="XMLID_1184_" stroke="#45413C" fill="#ADC4D9" fill-rule="nonzero" stroke-linecap="round" stroke-linejoin="round" points="0.5 36.3 4 38.3 4 25.8 0.5 27.8"></polygon>
                <path d="M22,8.8 C22.2,7.8 24.5,0.8 32.5,2.1" id="XMLID_1183_" stroke="#45413C" stroke-linecap="round" stroke-linejoin="round"></path>
                <circle id="XMLID_1182_" stroke="#45413C" fill="#FF6242" fill-rule="nonzero" stroke-linecap="round" stroke-linejoin="round" cx="34" cy="3.3" r="2.5"></circle>
                <path d="M28.5,43.8 C28.5,44.9 27.6,45.8 26.5,45.8 L17.5,45.8 C16.4,45.8 15.5,44.9 15.5,43.8 L15.5,35.8 C15.5,34.7 16.4,33.8 17.5,33.8 L26.5,33.8 C27.6,33.8 28.5,34.7 28.5,35.8 L28.5,43.8 Z" id="XMLID_1181_" stroke="#45413C" stroke-linecap="round" stroke-linejoin="round"></path>
                <path d="M28.5,38.3 L15.5,38.3 L15.5,35.8 C15.5,34.7 16.4,33.8 17.5,33.8 L26.5,33.8 C27.6,33.8 28.5,34.7 28.5,35.8 L28.5,38.3 Z" id="XMLID_1180_" stroke="#45413C" fill="#FF6242" fill-rule="nonzero" stroke-linecap="round" stroke-linejoin="round"></path>
                <path d="M31.5,11.5 C28.7,9.8 25.5,8.8 22,8.8 C18.5,8.8 15.3,9.8 12.5,11.5 L12.5,23.8 L31.5,23.8 L31.5,11.5 Z" id="XMLID_1179_" stroke="#45413C" stroke-linecap="round" stroke-linejoin="round"></path>
                <circle id="XMLID_1178_" stroke="#45413C" fill="#00DFEB" fill-rule="nonzero" stroke-linecap="round" stroke-linejoin="round" cx="30.5" cy="24.8" r="5"></circle>
                <circle id="XMLID_1177_" stroke="#45413C" fill="#627B8C" fill-rule="nonzero" stroke-linecap="round" stroke-linejoin="round" cx="30.5" cy="24.8" r="2"></circle>
                <circle id="XMLID_1176_" stroke="#45413C" fill="#00DFEB" fill-rule="nonzero" stroke-linecap="round" stroke-linejoin="round" cx="13.5" cy="24.8" r="5"></circle>
                <circle id="XMLID_1175_" stroke="#45413C" fill="#627B8C" fill-rule="nonzero" stroke-linecap="round" stroke-linejoin="round" cx="13.5" cy="24.8" r="2"></circle>
            </g>
        </g>
    </g>
</svg>