<?xml version="1.0" encoding="UTF-8"?>
<svg width="1086px" height="405px" viewBox="0 0 1086 405" version="1.1" xmlns="http://www.w3.org/2000/svg" xmlns:xlink="http://www.w3.org/1999/xlink">
    <!-- Generator: Sketch 52.6 (67491) - http://www.bohemiancoding.com/sketch -->
    <title>Desktop Copy</title>
    <desc>Created with Sketch.</desc>
    <g id="Desktop-Copy" stroke="none" stroke-width="1" fill="none" fill-rule="evenodd">
        <g id="50" transform="translate(89.000000, 13.000000)" fill="#000000">
            <path d="M12.1904759,11.4334868 L9.92142723,12.2757295 C10.7251596,12.1325978 11.4801437,11.8442127 12.1904759,11.4334868 M17.4558378,11.0272868 C16.5546088,11.2455203 15.6692197,11.4935965 14.7555647,11.6061784 C15.7130522,11.6876447 16.5947545,11.385399 17.4558378,11.0272868 M15.2205169,8.14753787 C15.2252961,7.77853513 14.9953462,7.82478423 14.7843767,7.85632413 C14.0709038,7.96254148 13.7041309,8.53209841 13.3585233,9.08015729 C13.1065888,9.47956847 12.893298,9.92763312 12.8874263,10.4321302 C12.885105,10.6244812 12.934536,10.7773719 13.1748637,10.640039 C13.8309857,10.2649545 14.420881,9.80911097 14.8465069,9.1583706 C15.0492834,8.84834607 15.1900663,8.50833741 15.2205169,8.14753787 M14.7592515,11.1697113 C15.3395884,11.199554 15.8964386,11.0339342 16.452333,10.8876908 C18.8542447,10.2556198 20.8775037,8.93165102 22.7113681,7.24235675 C23.9363567,6.11385047 25.0454145,4.87544954 26.1144632,3.59405252 C26.2120963,3.47722758 26.3063157,3.35502813 26.4532433,3.30156587 C26.6183321,3.24159762 26.7349457,3.25531677 26.6572488,3.48316783 C26.6382684,3.53931735 26.5630294,3.59178956 26.6658514,3.62446095 C27.0204714,3.73732572 26.9243403,4.00491989 26.8613908,4.24832875 C26.7434118,4.70516235 26.448191,5.06525471 26.1955738,5.44005627 C25.4879725,6.49020781 24.741318,7.51362821 23.8714955,8.42672967 C23.0639397,9.27434693 22.146871,9.99127867 21.2109584,10.6811964 C20.6151915,11.1203507 20.0033116,11.5585149 19.3019916,11.7569476 C18.8360836,11.8887646 18.4597522,12.1835142 18.0051778,12.3175942 C17.1337167,12.5745807 16.2630749,12.8209597 15.352424,12.8732905 C14.602902,12.9162866 13.894891,12.7624058 13.2428656,12.3761481 C13.0279361,12.2487155 12.8258423,12.2398052 12.6076357,12.3328691 C12.0195155,12.5834911 11.4218369,12.8153023 10.8260699,13.0369303 C9.85683916,13.3977298 8.83681185,13.5975768 7.81596524,13.7554178 C6.18774494,14.0071713 4.55720329,14.0865161 2.92857334,13.7520234 C1.97135896,13.5554293 1.03995249,13.2971699 0.321154131,12.5455866 C0.131896051,12.3477197 -0.00847718484,12.1293448 0.0003985548,11.8353023 C0.0040854005,11.708577 0.0427290054,11.6126844 0.162483216,11.5596464 C0.3040854,11.4971323 0.316511436,11.6010867 0.38178226,11.6961307 C0.829256088,12.348144 1.54245591,12.4335705 2.22015277,12.5781166 C4.08774494,12.9765377 5.94591517,12.7940872 7.79957926,12.4583215 C9.218059,12.201335 10.5987144,11.8034796 11.9328064,11.2387314 C12.0387691,11.1938967 12.1848774,11.1977154 12.0966662,10.9905138 C11.7892925,10.2686318 11.8388601,9.5304849 12.0890194,8.81213882 C12.4750458,7.70329195 13.1039944,6.80433394 14.2597522,6.46093086 C14.8807809,6.27635877 15.2949366,6.48539903 15.6592515,7.03345792 C16.5876539,8.42955836 16.0781864,9.9328662 15.0196521,10.8328142 C14.9247499,10.9132905 14.8299844,10.9937668 14.7353553,11.0741016 C14.7432752,11.1060658 14.7513316,11.1378886 14.7592515,11.1697113" id="Fill-149"></path>
            <path d="M26.7163612,1.53617981 C27.443216,1.2991355 28.1230977,0.966057136 28.733612,0.492251392 C28.0612406,0.840180386 27.3888692,1.18825081 26.7163612,1.53617981 M28.2189557,4.6996464 C28.2360244,3.90025832 28.3844541,3.11784239 28.5031159,2.33146629 C28.5208674,2.21393417 28.6017049,2.08579447 28.4591468,1.98311299 C28.3221874,1.88453311 28.2164978,1.98523451 28.1237804,2.04845575 C27.6181364,2.39256601 27.0432615,2.56370182 26.4924195,2.79989752 C26.1444905,2.9492524 25.8210039,3.16791022 25.4590103,3.31005194 C24.9016138,3.52870976 24.3593744,3.79092941 23.8172716,4.0491889 C23.5425333,4.18001586 23.2205488,4.17195409 22.9815865,4.4213032 C22.7471305,4.66584354 22.4930112,4.59215614 22.2044814,4.1846832 C22.0571441,3.97677441 21.9967891,3.69956269 22.2474946,3.50226149 C22.4536849,3.34003607 22.6755783,3.19152979 22.9079862,3.07428054 C24.4462201,2.29851204 25.9904623,1.53561407 27.5295155,0.761684211 C27.8749866,0.588002583 28.2095337,0.389994212 28.5468118,0.199057569 C29.1600572,-0.148164252 29.4196384,-0.0549588837 29.747358,0.588002583 C30.0017504,1.08712511 30.0220963,1.57974165 29.8509994,2.11139413 C29.5217777,3.13481453 29.2206853,4.16799392 29.08277,5.24218933 C29.0551869,5.45745272 29.0568255,5.67653484 29.0372989,5.89321257 C29.0149047,6.14411746 28.9012952,6.20818731 28.6933298,6.06052964 C28.232201,5.73353296 28.1932843,5.62335545 28.2189557,4.6996464" id="Fill-151"></path>
        </g>
        <g id="50" transform="translate(811.000000, 263.000000)" fill="#000000">
            <path d="M12.1904759,11.4334868 L9.92142723,12.2757295 C10.7251596,12.1325978 11.4801437,11.8442127 12.1904759,11.4334868 M17.4558378,11.0272868 C16.5546088,11.2455203 15.6692197,11.4935965 14.7555647,11.6061784 C15.7130522,11.6876447 16.5947545,11.385399 17.4558378,11.0272868 M15.2205169,8.14753787 C15.2252961,7.77853513 14.9953462,7.82478423 14.7843767,7.85632413 C14.0709038,7.96254148 13.7041309,8.53209841 13.3585233,9.08015729 C13.1065888,9.47956847 12.893298,9.92763312 12.8874263,10.4321302 C12.885105,10.6244812 12.934536,10.7773719 13.1748637,10.640039 C13.8309857,10.2649545 14.420881,9.80911097 14.8465069,9.1583706 C15.0492834,8.84834607 15.1900663,8.50833741 15.2205169,8.14753787 M14.7592515,11.1697113 C15.3395884,11.199554 15.8964386,11.0339342 16.452333,10.8876908 C18.8542447,10.2556198 20.8775037,8.93165102 22.7113681,7.24235675 C23.9363567,6.11385047 25.0454145,4.87544954 26.1144632,3.59405252 C26.2120963,3.47722758 26.3063157,3.35502813 26.4532433,3.30156587 C26.6183321,3.24159762 26.7349457,3.25531677 26.6572488,3.48316783 C26.6382684,3.53931735 26.5630294,3.59178956 26.6658514,3.62446095 C27.0204714,3.73732572 26.9243403,4.00491989 26.8613908,4.24832875 C26.7434118,4.70516235 26.448191,5.06525471 26.1955738,5.44005627 C25.4879725,6.49020781 24.741318,7.51362821 23.8714955,8.42672967 C23.0639397,9.27434693 22.146871,9.99127867 21.2109584,10.6811964 C20.6151915,11.1203507 20.0033116,11.5585149 19.3019916,11.7569476 C18.8360836,11.8887646 18.4597522,12.1835142 18.0051778,12.3175942 C17.1337167,12.5745807 16.2630749,12.8209597 15.352424,12.8732905 C14.602902,12.9162866 13.894891,12.7624058 13.2428656,12.3761481 C13.0279361,12.2487155 12.8258423,12.2398052 12.6076357,12.3328691 C12.0195155,12.5834911 11.4218369,12.8153023 10.8260699,13.0369303 C9.85683916,13.3977298 8.83681185,13.5975768 7.81596524,13.7554178 C6.18774494,14.0071713 4.55720329,14.0865161 2.92857334,13.7520234 C1.97135896,13.5554293 1.03995249,13.2971699 0.321154131,12.5455866 C0.131896051,12.3477197 -0.00847718484,12.1293448 0.0003985548,11.8353023 C0.0040854005,11.708577 0.0427290054,11.6126844 0.162483216,11.5596464 C0.3040854,11.4971323 0.316511436,11.6010867 0.38178226,11.6961307 C0.829256088,12.348144 1.54245591,12.4335705 2.22015277,12.5781166 C4.08774494,12.9765377 5.94591517,12.7940872 7.79957926,12.4583215 C9.218059,12.201335 10.5987144,11.8034796 11.9328064,11.2387314 C12.0387691,11.1938967 12.1848774,11.1977154 12.0966662,10.9905138 C11.7892925,10.2686318 11.8388601,9.5304849 12.0890194,8.81213882 C12.4750458,7.70329195 13.1039944,6.80433394 14.2597522,6.46093086 C14.8807809,6.27635877 15.2949366,6.48539903 15.6592515,7.03345792 C16.5876539,8.42955836 16.0781864,9.9328662 15.0196521,10.8328142 C14.9247499,10.9132905 14.8299844,10.9937668 14.7353553,11.0741016 C14.7432752,11.1060658 14.7513316,11.1378886 14.7592515,11.1697113" id="Fill-149"></path>
            <path d="M26.7163612,1.53617981 C27.443216,1.2991355 28.1230977,0.966057136 28.733612,0.492251392 C28.0612406,0.840180386 27.3888692,1.18825081 26.7163612,1.53617981 M28.2189557,4.6996464 C28.2360244,3.90025832 28.3844541,3.11784239 28.5031159,2.33146629 C28.5208674,2.21393417 28.6017049,2.08579447 28.4591468,1.98311299 C28.3221874,1.88453311 28.2164978,1.98523451 28.1237804,2.04845575 C27.6181364,2.39256601 27.0432615,2.56370182 26.4924195,2.79989752 C26.1444905,2.9492524 25.8210039,3.16791022 25.4590103,3.31005194 C24.9016138,3.52870976 24.3593744,3.79092941 23.8172716,4.0491889 C23.5425333,4.18001586 23.2205488,4.17195409 22.9815865,4.4213032 C22.7471305,4.66584354 22.4930112,4.59215614 22.2044814,4.1846832 C22.0571441,3.97677441 21.9967891,3.69956269 22.2474946,3.50226149 C22.4536849,3.34003607 22.6755783,3.19152979 22.9079862,3.07428054 C24.4462201,2.29851204 25.9904623,1.53561407 27.5295155,0.761684211 C27.8749866,0.588002583 28.2095337,0.389994212 28.5468118,0.199057569 C29.1600572,-0.148164252 29.4196384,-0.0549588837 29.747358,0.588002583 C30.0017504,1.08712511 30.0220963,1.57974165 29.8509994,2.11139413 C29.5217777,3.13481453 29.2206853,4.16799392 29.08277,5.24218933 C29.0551869,5.45745272 29.0568255,5.67653484 29.0372989,5.89321257 C29.0149047,6.14411746 28.9012952,6.20818731 28.6933298,6.06052964 C28.232201,5.73353296 28.1932843,5.62335545 28.2189557,4.6996464" id="Fill-151"></path>
        </g>
        <g id="50" transform="translate(443.000000, 116.000000)" fill="#000000">
            <path d="M12.1904759,11.4334868 L9.92142723,12.2757295 C10.7251596,12.1325978 11.4801437,11.8442127 12.1904759,11.4334868 M17.4558378,11.0272868 C16.5546088,11.2455203 15.6692197,11.4935965 14.7555647,11.6061784 C15.7130522,11.6876447 16.5947545,11.385399 17.4558378,11.0272868 M15.2205169,8.14753787 C15.2252961,7.77853513 14.9953462,7.82478423 14.7843767,7.85632413 C14.0709038,7.96254148 13.7041309,8.53209841 13.3585233,9.08015729 C13.1065888,9.47956847 12.893298,9.92763312 12.8874263,10.4321302 C12.885105,10.6244812 12.934536,10.7773719 13.1748637,10.640039 C13.8309857,10.2649545 14.420881,9.80911097 14.8465069,9.1583706 C15.0492834,8.84834607 15.1900663,8.50833741 15.2205169,8.14753787 M14.7592515,11.1697113 C15.3395884,11.199554 15.8964386,11.0339342 16.452333,10.8876908 C18.8542447,10.2556198 20.8775037,8.93165102 22.7113681,7.24235675 C23.9363567,6.11385047 25.0454145,4.87544954 26.1144632,3.59405252 C26.2120963,3.47722758 26.3063157,3.35502813 26.4532433,3.30156587 C26.6183321,3.24159762 26.7349457,3.25531677 26.6572488,3.48316783 C26.6382684,3.53931735 26.5630294,3.59178956 26.6658514,3.62446095 C27.0204714,3.73732572 26.9243403,4.00491989 26.8613908,4.24832875 C26.7434118,4.70516235 26.448191,5.06525471 26.1955738,5.44005627 C25.4879725,6.49020781 24.741318,7.51362821 23.8714955,8.42672967 C23.0639397,9.27434693 22.146871,9.99127867 21.2109584,10.6811964 C20.6151915,11.1203507 20.0033116,11.5585149 19.3019916,11.7569476 C18.8360836,11.8887646 18.4597522,12.1835142 18.0051778,12.3175942 C17.1337167,12.5745807 16.2630749,12.8209597 15.352424,12.8732905 C14.602902,12.9162866 13.894891,12.7624058 13.2428656,12.3761481 C13.0279361,12.2487155 12.8258423,12.2398052 12.6076357,12.3328691 C12.0195155,12.5834911 11.4218369,12.8153023 10.8260699,13.0369303 C9.85683916,13.3977298 8.83681185,13.5975768 7.81596524,13.7554178 C6.18774494,14.0071713 4.55720329,14.0865161 2.92857334,13.7520234 C1.97135896,13.5554293 1.03995249,13.2971699 0.321154131,12.5455866 C0.131896051,12.3477197 -0.00847718484,12.1293448 0.0003985548,11.8353023 C0.0040854005,11.708577 0.0427290054,11.6126844 0.162483216,11.5596464 C0.3040854,11.4971323 0.316511436,11.6010867 0.38178226,11.6961307 C0.829256088,12.348144 1.54245591,12.4335705 2.22015277,12.5781166 C4.08774494,12.9765377 5.94591517,12.7940872 7.79957926,12.4583215 C9.218059,12.201335 10.5987144,11.8034796 11.9328064,11.2387314 C12.0387691,11.1938967 12.1848774,11.1977154 12.0966662,10.9905138 C11.7892925,10.2686318 11.8388601,9.5304849 12.0890194,8.81213882 C12.4750458,7.70329195 13.1039944,6.80433394 14.2597522,6.46093086 C14.8807809,6.27635877 15.2949366,6.48539903 15.6592515,7.03345792 C16.5876539,8.42955836 16.0781864,9.9328662 15.0196521,10.8328142 C14.9247499,10.9132905 14.8299844,10.9937668 14.7353553,11.0741016 C14.7432752,11.1060658 14.7513316,11.1378886 14.7592515,11.1697113" id="Fill-149"></path>
            <path d="M26.7163612,1.53617981 C27.443216,1.2991355 28.1230977,0.966057136 28.733612,0.492251392 C28.0612406,0.840180386 27.3888692,1.18825081 26.7163612,1.53617981 M28.2189557,4.6996464 C28.2360244,3.90025832 28.3844541,3.11784239 28.5031159,2.33146629 C28.5208674,2.21393417 28.6017049,2.08579447 28.4591468,1.98311299 C28.3221874,1.88453311 28.2164978,1.98523451 28.1237804,2.04845575 C27.6181364,2.39256601 27.0432615,2.56370182 26.4924195,2.79989752 C26.1444905,2.9492524 25.8210039,3.16791022 25.4590103,3.31005194 C24.9016138,3.52870976 24.3593744,3.79092941 23.8172716,4.0491889 C23.5425333,4.18001586 23.2205488,4.17195409 22.9815865,4.4213032 C22.7471305,4.66584354 22.4930112,4.59215614 22.2044814,4.1846832 C22.0571441,3.97677441 21.9967891,3.69956269 22.2474946,3.50226149 C22.4536849,3.34003607 22.6755783,3.19152979 22.9079862,3.07428054 C24.4462201,2.29851204 25.9904623,1.53561407 27.5295155,0.761684211 C27.8749866,0.588002583 28.2095337,0.389994212 28.5468118,0.199057569 C29.1600572,-0.148164252 29.4196384,-0.0549588837 29.747358,0.588002583 C30.0017504,1.08712511 30.0220963,1.57974165 29.8509994,2.11139413 C29.5217777,3.13481453 29.2206853,4.16799392 29.08277,5.24218933 C29.0551869,5.45745272 29.0568255,5.67653484 29.0372989,5.89321257 C29.0149047,6.14411746 28.9012952,6.20818731 28.6933298,6.06052964 C28.232201,5.73353296 28.1932843,5.62335545 28.2189557,4.6996464" id="Fill-151"></path>
        </g>
        <g id="9" transform="translate(976.000000, 300.000000)" fill="#000000">
            <path d="M32.6017045,28.5279052 C32.9859128,28.4962744 33.6669242,27.9444366 33.7676192,27.6041508 C33.7855091,27.5431001 33.8052733,27.4716758 33.7340542,27.4510988 C33.6849846,27.437154 33.5815635,27.4609621 33.570148,27.4924228 C33.3972117,27.9679046 32.9203163,28.1633011 32.6017045,28.5279052 M50.0931502,20.9977426 C50.6201375,20.9480857 51.0416592,20.7098346 51.3997993,20.3598555 C51.4943605,20.2675141 51.7538502,20.1784037 51.5732468,20.0182092 C51.4057626,19.8699187 51.407296,20.1654793 51.3025119,20.2249996 C51.2490124,20.2554399 51.1915942,20.2829893 51.1466137,20.323293 C50.830728,20.6062693 50.3928498,20.6970802 50.0931502,20.9977426 M38.3874899,18.4757843 C38.0470694,18.4562276 36.8363447,19.130337 36.7511544,19.3696085 C36.7375239,19.4073613 36.7341163,19.4707929 36.7562658,19.4949411 C36.8366854,19.5830311 36.9320986,19.5364353 37.0050215,19.4840574 C37.4609601,19.1563559 37.9126391,18.8230425 38.3874899,18.4757843 M18.5873867,26.0945471 C18.331475,26.1076415 18.2467958,26.1976022 18.1614351,26.2875628 C17.408012,27.0834336 16.7101329,27.9170573 16.1279423,28.8545864 C15.3419765,30.1210074 14.6398379,31.4396361 13.7669779,32.6536793 C13.6216433,32.8562182 13.3352334,32.9851221 13.3200695,33.366902 C13.7519844,32.9982165 14.0619068,32.6240892 14.3137294,32.2011553 C14.8821191,31.2471306 15.435345,30.2840929 16.0180468,29.3390813 C16.7314305,28.1820075 17.5838448,27.128669 18.5873867,26.0945471 M3.48604042,29.8138828 C3.86292237,29.4684953 4.08220224,29.5031871 4.24201927,29.9895526 C4.50321277,30.7857636 4.67563797,31.6064629 4.63150939,32.4497799 C4.62009388,32.6671139 4.79268946,32.7264641 4.85896753,32.8710132 C5.00532449,33.1902119 5.08131425,33.531348 5.21881141,33.8542879 C5.67185351,34.9174897 6.59599804,35.1375446 7.57619779,35.3103234 C9.62877322,35.6722065 11.1446497,34.7288955 12.5148507,33.3509166 C13.5255486,32.3344807 14.1680539,31.0859157 14.867296,29.8694918 C15.6375869,28.5290956 16.5000536,27.255022 17.5574358,26.1229468 C19.3438767,24.2103059 21.9624566,23.8720607 24.3324511,25.2019133 C25.5501614,25.8852059 26.5922094,26.7866826 27.4971009,27.8194441 C28.4631591,28.9217592 29.6154432,29.0669887 30.9001132,28.7030648 C32.626069,28.2141484 33.6013277,26.966944 34.1707397,25.3309872 C34.6072549,24.0766404 34.8447655,22.7717863 35.1841637,21.4932912 C35.9203784,18.7210077 37.4848133,17.7394337 40.1768273,17.2807876 C41.1633311,17.1127704 41.8884711,17.5391055 42.5411993,18.178013 C43.1264567,18.7507679 43.6912685,19.34478 44.2647697,19.9296091 C44.3949405,20.0622542 44.5194887,20.202722 44.713893,20.2430257 C46.232666,20.5571226 47.7562095,20.8424797 49.312807,20.5503203 C50.9152368,20.2494879 52.5515723,18.7119947 52.6906029,16.7462957 C52.7941944,15.2831178 52.9219798,13.8214703 53.0352829,12.3589726 C53.0521506,12.1419788 53.0741297,11.922094 53.1916924,11.7397919 C53.3044843,11.5646323 53.4743538,11.4746717 53.706753,11.5001804 C53.9280774,11.5244986 53.9522715,11.6408182 53.9238179,11.8180185 C53.9132543,11.8831507 53.942219,11.9470925 54.009349,11.9637581 C54.7603868,12.151332 54.8217238,12.8082655 54.8951579,13.3810205 C55.0588937,14.6591754 54.8569926,15.9395412 54.7980409,17.2182063 C54.7706096,17.8162999 54.7317629,18.413203 54.6126668,19.006875 C54.3477249,20.326014 53.6357043,21.3198322 52.4609298,22.0777801 C52.598427,21.75433 52.9429366,21.6936194 53.043802,21.4111533 C52.5314674,21.7456571 52.0286742,22.0895141 51.4839673,22.3747012 C51.5851734,22.5012242 51.6967727,22.2854208 51.8129723,22.4672126 C51.3186981,22.6673708 50.8591816,22.9403137 50.3020369,22.7755276 C50.2093498,22.7483183 50.1899264,22.7828401 50.1229669,22.8154912 C49.6869628,23.0273833 49.2098971,22.9569793 48.7476544,22.9733049 C48.556317,22.9801072 48.4632892,22.8387891 48.4871424,22.6012183 C48.272974,22.9804473 47.9754894,22.9357221 47.6502328,22.876712 C47.1498249,22.785731 46.6408979,22.7427064 46.139127,22.6588679 C45.0134222,22.4706138 44.0931964,21.8890159 43.2883183,21.1133819 C42.8429434,20.6843259 42.4197179,20.2314618 42.0002408,19.7768971 C41.8124813,19.5731678 41.6034243,19.5187492 41.3360971,19.5422172 C39.4489612,19.7078536 38.28458,20.6219147 37.6906331,22.4097331 C37.329767,23.496743 37.1421779,24.6271177 36.8475898,25.7304532 C36.5058063,27.0097986 36.0612832,28.2389769 35.0771647,29.1875597 C34.6912526,29.5596463 34.2153795,29.8007884 33.7619966,30.0805336 C33.0859263,30.4976856 32.4115597,30.7177404 31.649788,30.7645064 C29.4406327,30.9002125 27.5517931,30.2366467 26.0427318,28.5680389 C25.5165965,27.9864409 24.9221385,27.4662339 24.3581786,26.9188176 C23.376275,25.9653031 21.8626135,26.064787 20.8335145,26.6620302 C19.6589105,27.3439623 18.8632329,28.3945798 18.1248033,29.4812496 C17.300161,30.6944425 16.6009189,31.9948751 15.7432228,33.1825593 C14.7202576,34.5991414 13.4231498,35.7582558 11.7575088,36.3716546 C10.9234956,36.6787791 10.0354718,36.8359126 9.09940061,36.7030974 C8.57769513,36.6292923 8.03571435,36.6180684 7.50259336,36.5515758 C6.70606392,36.4520919 5.95383345,36.2046577 5.25885086,35.841074 C3.96412846,35.1640736 3.18174062,34.080975 2.95274905,32.6222186 C2.83484566,31.8705628 2.87471472,31.1212878 2.96297189,30.3704823 C2.99074393,30.1349521 3.07337854,29.9198289 3.16930283,29.7116781 C3.21206837,29.6186564 3.26710131,29.4455375 3.43015557,29.517472 C3.56816388,29.5783527 3.32503073,29.7094673 3.48604042,29.8138828" id="Fill-521" transform="translate(28.918650, 24.123238) rotate(-30.000000) translate(-28.918650, -24.123238) "></path>
        </g>
        <g id="84" transform="translate(1021.000000, 70.000000)" fill="#000000">
            <path d="M68.7245397,1.11953419 C68.7307654,1.14352038 68.7367517,1.16750656 68.7429774,1.19125289 L72.4283521,1.19125289 C72.4266759,1.16750656 72.4252392,1.14352038 72.4233236,1.11953419 L68.7245397,1.11953419 Z M32.7850128,29.8832882 C34.0220114,28.663111 35.3756222,27.5350407 36.0314757,25.8564874 C34.9494012,27.1989942 33.8673268,28.5410213 32.7850128,29.8832882 Z M39.1280429,15.9787363 C39.1280429,15.7393542 39.1474383,15.4980531 39.1251695,15.2608298 C38.7664734,11.4367122 35.6402144,10.4489611 32.8482276,11.2280324 C31.9378388,11.4818062 31.1708805,11.977121 30.4376846,12.5172899 C29.7842256,12.9984527 29.1341189,13.5309461 28.6291189,14.1591443 C27.3688937,15.7273611 26.6500648,17.5747771 26.2643109,19.5330093 C25.7277035,22.2573602 25.6187537,24.9812315 26.6486281,27.6362624 C27.2518026,29.1900875 28.1392042,30.5241991 29.6017647,31.4217622 C30.0224784,31.6798535 30.2932963,31.6059761 30.6182299,31.2927165 C33.0031518,28.9938805 35.1965136,26.5398538 36.8187872,23.624333 C38.1431851,21.2449033 39.1043373,18.7520191 39.1280429,15.9787363 Z M60.9553456,2.69638603 C62.9097363,2.24376671 64.8638877,1.79138725 66.8182784,1.33876793 C65.2867563,1.56591711 63.7628966,1.85782898 62.2500516,2.19843282 C61.8065903,2.29821535 61.3940179,2.53639818 60.9661208,2.70957843 C60.0562109,2.6915888 59.3668344,3.2216835 58.6542312,3.6920526 C59.4211895,3.36032365 60.1883873,3.02835484 60.9553456,2.69638603 Z M29.0292398,32.694709 C26.6186969,31.1763835 25.124529,29.0569641 24.4334763,26.4501455 C23.1124307,21.466056 23.8757973,16.7978645 27.0521013,12.676798 C28.5436353,10.7413527 30.5954822,9.53124962 33.0395482,9.17025752 C35.1028887,8.86563297 36.9071443,9.55475608 38.4326801,10.9505122 C39.9503141,12.3385928 40.9294251,14.0703954 41.0936878,16.1140184 C41.2342449,17.8652498 41.0793208,19.6438255 40.4088608,21.3089465 C39.8722534,22.6408993 39.3210396,23.9726124 38.6647072,25.2472383 C38.2693752,26.0150361 37.6829622,26.6907269 37.143242,27.3767318 C35.874636,28.9883636 34.5825639,30.5812862 33.3197046,32.3205245 C33.7926184,32.1850026 34.2856459,32.0964936 34.7346146,31.9046041 C36.1835264,31.2850409 37.3429433,30.2617902 38.3790433,29.1042169 C40.87507,26.3151033 42.5414024,23.0155636 44.115786,19.6598962 C45.484961,16.7412571 46.8783205,13.8341314 48.7534533,11.1920531 C52.4263766,6.01727343 57.3360591,2.71941277 63.5361375,1.33349097 C67.3335748,0.48461986 71.1774654,0.629256559 75.0218348,0.64484758 C76.4688311,0.650604264 77.9165457,0.533071955 79.3640208,0.474545662 C79.4430393,0.471187596 79.5234945,0.49493392 79.6920673,0.518440382 C79.5167899,0.682985615 79.3994594,0.793322069 79.3757539,0.815389359 C79.5814414,0.983052797 79.7907207,1.15383444 80,1.32437622 C79.8204125,1.53833299 79.6808132,1.8319239 79.4516595,1.94729746 C79.1121195,2.11831896 78.7139141,2.21666232 78.3322309,2.25120243 C77.2839188,2.34594786 76.2305784,2.38120755 75.1803507,2.45868293 C73.9811852,2.54743182 72.7839353,2.6632851 71.5845303,2.75083467 C71.2931197,2.77218238 70.9935678,2.69446714 70.7038333,2.72277084 C69.3171784,2.85805292 67.9223823,2.95255849 66.5503339,3.18114684 C65.3186032,3.38670845 64.1225505,3.80502753 62.8917776,4.02162279 C61.9540915,4.18664774 61.0927899,4.5176571 60.2357984,4.8918416 C58.1736551,5.79252287 56.2084891,6.81097631 54.5069575,8.35808528 C52.1203595,10.5278756 50.2208028,13.0718505 48.5662034,15.7909245 C47.5803878,17.4114312 46.9463243,19.2432562 46.0946007,20.950353 C45.2148615,22.7130978 44.2771753,24.4475388 43.3373341,26.1793414 C42.8637021,27.0519589 42.4053948,27.9504814 41.8031781,28.7312317 C41.0347831,29.7278577 40.1533677,30.6419713 39.2717129,31.543612 C38.6994274,32.1281553 38.0926612,32.7100602 37.4085526,33.1470885 C35.8209992,34.1621839 34.071817,34.4701665 32.2371513,33.9585412 C31.6773172,33.8026309 31.2779146,33.854681 30.8243964,34.2530915 C27.4687443,37.2012336 23.7251833,39.5588358 19.6535757,41.3736306 C17.2243557,42.4566068 14.7872337,43.5520559 12.2739667,44.4066837 C9.03229282,45.508849 5.67041506,46.123375 2.21682795,45.9792181 C1.65843058,45.9559515 1.09165247,45.847294 0.556242311,45.685867 C0.333553827,45.6187057 0.183179237,45.3100035 0,45.1113979 C0.200898536,44.9768354 0.390542923,44.7549631 0.605329558,44.7271392 C0.971688033,44.6796465 1.35432911,44.7494463 1.72906833,44.7789493 C1.98240641,44.7988579 2.23766009,44.8763332 2.48596973,44.855945 C5.16421779,44.6343126 7.77877216,44.0701575 10.3229282,43.2260837 C16.9509038,41.0267903 23.0233554,37.8001686 28.3788937,33.2761342 C28.575961,33.10967 28.7641687,32.9321723 29.0292398,32.694709 Z" id="Fill-1"></path>
        </g>
        <g id="69" transform="translate(42.000000, 195.000000)" fill="#000000">
            <path d="M17.5253698,1.65329322 C17.472214,1.70645754 17.42786,1.75050305 17.3717702,1.80642021 C17.0826923,1.77424634 16.7841223,1.72813619 16.4838264,1.71127502 C16.1868097,1.69475795 15.8878945,1.70766191 15.5898422,1.70766191 C15.3546105,1.70766191 15.097288,1.64795959 14.8898422,1.72366282 C14.6592702,1.80796869 14.4074704,1.72056587 14.2259122,1.81794775 C14.0150148,1.93115849 13.7609714,1.80229095 13.5890779,1.98931234 C13.2326923,1.95438562 12.9368836,2.17358089 12.6077663,2.22519673 C12.237574,2.28317852 11.9055227,2.42701466 11.5657051,2.55605426 C11.1730769,2.70522404 10.7676775,2.81843478 10.3912722,3.01560729 C10.1230769,3.15600237 9.83382643,3.26284716 9.5556213,3.38156359 C9.06065089,3.59284443 8.63488659,3.89875431 8.20221893,4.19829823 C7.96526134,4.36209249 7.75954142,4.57027638 7.53915187,4.75764188 C7.3308432,4.93520037 7.09802761,5.0907361 6.91698718,5.29238198 C6.27687377,6.00605699 5.59758383,6.69254766 5.18234714,7.576727 C4.89689349,7.83205335 4.78195266,8.19818171 4.6385355,8.52542613 C4.49511834,8.85267056 4.28197732,9.16356996 4.24452663,9.53520401 C3.93042406,10.0508462 3.80599112,10.6406432 3.63409763,11.2049764 C3.49861933,11.6493888 3.29790434,12.0889837 3.30325444,12.5714198 C3.13256903,12.7119869 3.22990631,12.9335909 3.13705621,13.1142463 C3.04282544,13.2976546 2.98328402,13.5323346 3.01624753,13.7689072 C3.04748521,13.9934361 2.88594675,14.19491 2.91977318,14.4342354 C2.94859467,14.6394944 2.91666667,14.8444093 2.84642505,15.0556901 C2.77825444,15.2600889 2.85470907,15.5021671 2.74701677,15.720158 C2.72095661,15.7728062 2.8170858,15.8758658 2.82709566,15.9593114 C2.83399901,16.0171212 2.7520217,16.1081371 2.77376726,16.1379022 C2.90096154,16.3115035 2.7936144,16.5012777 2.83296351,16.645458 C2.77066075,16.7617657 2.72216469,16.8519214 2.65192308,16.9828535 C2.70835799,17.0127907 2.78636588,17.0544275 2.8566075,17.091763 C2.8566075,17.7106369 2.85591716,18.2847771 2.85936884,18.8587452 C2.85954142,18.88094 2.90096154,18.9029628 2.9237426,18.9256737 C2.89336785,18.9588799 2.8629931,18.9922582 2.83261834,19.0256364 C2.91010848,19.3250083 3.02781065,19.6131967 3.02660256,19.9330429 C3.02591223,20.1076765 3.07216469,20.285407 3.11738166,20.4565995 C3.21109467,20.8106842 3.28651381,21.1714789 3.352786,21.5286605 C3.42768738,21.9316082 3.6408284,22.2593688 3.80788955,22.6101844 C3.97253452,22.9565267 4.19948225,23.2610602 4.55448718,23.4730292 C5.04428008,23.7653469 5.52354536,24.0777948 6.04077909,24.3174644 C6.28791913,24.4318795 6.55922091,24.5167015 6.80601578,24.6254389 C7.06454635,24.7391658 7.33999014,24.7885449 7.59852071,24.8644202 C7.82857495,24.9316929 8.09849606,24.9562964 8.35288462,24.9790074 C8.5622288,24.9977611 8.76656805,24.9829646 8.97677515,25.0648617 C9.16471893,25.1379842 9.40495562,25.0110092 9.59324458,25.1684375 C9.60239152,25.1761799 9.62379191,25.1694698 9.63949704,25.1694698 C10.4123274,25.1641362 11.1844675,25.3709437 11.9512574,25.2493023 C12.4696992,25.1672331 13.0155819,25.1612113 13.4989892,24.9058849 C14.2476578,24.8121162 14.8953649,24.4031467 15.6188363,24.2309218 C15.8169625,24.0437284 16.0972387,24.0227379 16.3224606,23.8833752 C16.5428501,23.7469373 16.7982742,23.6683092 17.0271203,23.543915 C17.8360207,23.1043201 18.6488905,22.6717793 19.4213757,22.168697 C19.5718688,22.0706269 19.6786982,21.9285112 19.8490385,21.8426569 C20.0602811,21.7361562 20.2389053,21.5555008 20.4118343,21.386717 C20.5733728,21.2287725 20.7444034,21.0830438 20.8567554,20.8695263 C20.9672091,20.6592777 21.1781065,20.5147534 21.3261834,20.3158604 C21.6715237,19.852006 22.0372288,19.3981307 22.2659024,18.8697566 C22.4081114,18.5414798 22.5442801,18.2020197 22.6654339,17.860839 C22.7822732,17.5315299 22.8228304,17.1841553 22.9617604,16.8584594 C23.0694527,16.6065741 23.0430473,16.2970511 23.0711785,16.0126478 C23.1055227,15.6661335 23.147288,15.3197912 23.1626479,14.9724166 C23.1783531,14.6133424 23.1875,14.2515153 23.1600592,13.8939896 C23.1327909,13.540077 23.0822239,13.1877129 23.0011095,12.8377575 C22.954857,12.6390365 22.9025641,12.4308526 22.8908284,12.2269701 C22.8727071,11.9076401 22.7411982,11.6320115 22.6219428,11.3500169 C22.3851578,10.789641 22.0413708,10.3013551 21.6751479,9.81220902 C21.270784,9.27213528 20.6900394,8.94213801 20.2587525,8.44370105 C20.078575,8.23568922 19.8203895,8.08428275 19.5756657,7.9459523 C19.3894477,7.84048394 19.1640533,7.81897734 18.9628205,7.72297188 C18.7160256,7.60528776 18.4371302,7.55504834 18.1725592,7.47401147 C18.1452909,7.46575294 18.1223373,7.43650396 18.0957594,7.43392317 C17.7638807,7.40020082 17.4318294,7.36665053 17.0994329,7.3401544 C16.9746548,7.33017533 16.8462525,7.32415349 16.7237179,7.34290724 C16.620858,7.3587361 16.5299063,7.1899523 16.4277367,7.3310356 C16.2624014,7.20423269 16.110355,7.3926305 15.9355276,7.34772472 C15.781928,7.30832463 15.6191815,7.36011252 15.4540187,7.41792226 C15.265212,7.48399054 15.0365385,7.41104015 14.8375493,7.52321858 C14.7143245,7.59272791 14.574359,7.63264416 14.4337032,7.68924953 C14.3946992,7.65036559 14.3392998,7.59496459 14.2818294,7.53784306 C14.2625,7.5522955 14.2248767,7.56812436 14.2259122,7.58137242 C14.2364398,7.73243478 14.188289,7.83016077 14.0405572,7.90655221 C13.7803008,8.04126955 13.5359221,8.20644024 13.2699704,8.36782577 C13.2247535,8.34201785 13.1619329,8.30640292 13.0471647,8.24102285 C13.0288708,8.31345708 13.0079882,8.39587037 12.9924556,8.45763733 C12.9701923,8.446798 13.0302515,8.47587493 13.1049803,8.51183396 C12.8766519,8.73533055 12.6503945,8.94970833 12.4324211,9.17200055 C11.916568,9.69813801 11.4854536,10.2875909 11.1344181,10.9345094 C10.9544132,11.2663993 10.7611193,11.5929555 10.6063116,11.9363729 C10.4162968,12.3575581 10.220932,12.7766787 10.0735454,13.2179942 C9.96775148,13.5345713 9.85177515,13.846331 9.75253945,14.165833 C9.69092702,14.3642099 9.72682446,14.5667161 9.63017751,14.7714589 C9.51471893,15.016118 9.5834073,15.3404375 9.50695266,15.6119368 C9.41772682,15.9290301 9.43222387,16.2430265 9.41789941,16.560808 C9.41358481,16.658534 9.35939349,16.7540233 9.32677515,16.8545021 C9.35576923,16.8870201 9.38631657,16.9210866 9.41720907,16.9556692 C9.39891519,16.9763155 9.37924063,16.9983383 9.3635355,17.0162318 C9.38338264,17.1435508 9.4191075,17.2670848 9.4191075,17.3907907 C9.41893491,17.7529619 9.5140286,18.0950028 9.60912229,18.4392805 C9.75892505,18.9805586 10.13464,19.3353315 10.6271943,19.5283747 C11.2048323,19.7546241 11.8156065,19.8611248 12.4408777,19.9376883 C12.9506903,19.9999714 13.4535996,19.9679696 13.9521943,20.0142518 C14.1862179,19.848565 14.4639053,19.7893788 14.7036243,19.6453706 C14.7840483,19.5970238 14.8879438,19.5698394 14.9711292,19.500158 C15.3183679,19.2080124 15.6982249,18.9588799 16.0351085,18.6488408 C16.1857742,18.5101662 16.3618097,18.3816428 16.5154093,18.2366023 C16.998644,17.7808344 17.3003205,17.212372 17.5163955,16.5945304 C17.5883629,16.3890993 17.60286,16.1516665 17.7167653,15.9760006 C17.8487919,15.77229 17.7117604,15.5159314 17.8945266,15.3430183 C17.9257643,14.9651904 17.9925542,14.5856419 17.9765039,14.2095345 C17.965286,13.9433688 17.8689842,13.6790957 17.8928008,13.403295 C17.8981509,13.3425604 17.5733481,12.6004967 17.5012081,12.5354607 C17.344502,12.3940333 17.1745069,12.2674025 17.0102071,12.1345777 C16.847288,12.2226687 16.7169872,12.0033014 16.5197239,12.1103183 C16.3569773,12.1985813 16.1101824,12.2145823 15.9284517,12.1639987 C15.7230769,12.1068772 15.8630424,12.2706715 15.7940089,12.3033615 C15.2362179,12.5674625 14.8801775,13.0887825 14.3779586,13.4263501 C14.3534517,13.4426951 14.3370562,13.4712559 14.3622535,13.4426951 C14.3042653,13.6436528 14.3018491,13.8157056 14.2159024,13.9187652 C13.9644477,14.2207179 13.908358,14.6099013 13.7155819,14.9355973 C13.6731262,15.0075153 13.6710552,15.1057575 13.6593195,15.1928162 C13.6337771,15.384311 13.7193787,15.5900861 13.568713,15.7676446 C13.5376479,15.8041198 13.552145,15.8918667 13.5664694,15.9508808 C13.6071992,16.1177721 13.6588018,16.2819104 13.7147189,16.4771904 C14.3287722,16.0606505 14.5541667,15.3688262 14.9980523,14.8550766 L15.3411489,14.8550766 C15.2736686,15.0033861 15.2124014,15.1379314 15.1114398,15.3593633 C15.2552022,15.2981125 15.324926,15.2852086 15.3715237,15.2452923 C15.4780079,15.1535882 15.5732742,15.048636 15.6785503,14.9436838 C15.8181706,15.0367643 15.893072,15.1931603 16.0235454,15.3020697 C16.1453895,15.4034088 16.1849112,15.6031621 16.2991617,15.8392186 C16.3036489,16.189174 16.0076677,16.537925 15.9175789,16.9506797 C15.7477564,17.0623419 15.5561884,17.1284102 15.5268491,17.3954361 C15.5094181,17.5537247 15.3511588,17.6965285 15.2795365,17.8092231 C15.0779586,17.8986906 14.9148669,17.8181699 14.7460799,17.9188208 C14.50964,18.0599041 14.2568047,17.8083629 13.9974112,17.8493114 C13.6313609,17.6077493 13.1955868,17.5148408 12.8219428,17.2725904 C12.5409763,17.0903865 12.3658037,16.8415982 12.176997,16.5967671 C12.0461785,16.427123 11.9838757,16.2067234 11.868072,16.0234871 C11.7534763,15.8424876 11.7534763,15.6277657 11.7020464,15.4374753 C11.6233481,15.1456737 11.631287,14.8070738 11.6934172,14.5070138 C11.7816075,14.0830757 11.8590976,13.650879 12.0541174,13.2506842 C12.2974606,12.7512149 12.6056953,12.3000925 12.990212,11.9028226 C13.3502219,11.5308444 13.7124753,11.1648881 14.1703402,10.8978622 C14.4670118,10.7249491 14.7983728,10.6704084 15.1017751,10.5310456 C15.2438116,10.4656655 15.3749753,10.6304921 15.5470414,10.5417129 C15.670784,10.4780534 15.8556213,10.5171093 16.0109467,10.5325941 C16.1719675,10.5489391 16.388215,10.5380998 16.4781312,10.6341052 C16.6790187,10.8486551 17.0291913,10.7263255 17.1831361,10.9933515 C17.4830868,10.9938676 17.6679241,11.2151275 17.867431,11.379438 C18.377071,11.7994188 18.9091469,12.2082163 19.1509369,12.8615008 C19.186144,12.956646 19.2177268,13.0528235 19.2506903,13.1474525 C19.2940089,13.1570875 19.3368097,13.1665504 19.3752959,13.175153 C19.4450197,13.4352969 19.5126726,13.6883865 19.5822239,13.9478422 C19.5704882,13.9629828 19.5518491,13.986554 19.5178501,14.0299113 C19.5749753,14.1202391 19.6383136,14.2205458 19.719428,14.3488972 C19.5936144,14.3686833 19.5073225,14.3824475 19.4129191,14.3974161 C19.4099852,14.4443865 19.4073964,14.4867115 19.4037722,14.5471021 L19.6139793,14.5471021 C19.6445266,14.5751467 19.6559172,14.5856419 19.6673077,14.595965 C19.5368343,14.7148535 19.7479043,14.8232468 19.6814596,14.9328444 C19.525789,15.1895472 19.6214004,15.4713697 19.585503,15.7390838 C19.5582347,15.941762 19.5149162,16.1456446 19.4489892,16.3388599 C19.4072239,16.4615336 19.3107495,16.5654534 19.239645,16.6765995 C19.4334566,16.961691 19.0705128,17.2416209 19.1937377,17.5492513 C19.1588757,17.5564776 19.116075,17.5654243 19.0682692,17.5754034 C18.9749014,17.7782536 18.8779093,17.9888462 18.74036,18.2873579 L18.74036,18.6015263 C18.6357742,18.8527234 18.5163462,19.0395727 18.2749014,19.1080497 L18.2749014,19.3150292 C18.0161982,19.5681189 17.7669872,19.8549309 17.4708333,20.080148 C17.3533037,20.1696155 17.2381903,20.2669974 17.1192801,20.356981 C17.0127959,20.4378458 16.8876726,20.4987525 16.7953402,20.5925213 C16.4869329,20.9053132 16.0962032,21.0916464 15.7142751,21.2802163 C15.1792653,21.5444894 14.4148915,21.6618294 13.8260355,21.5978258 C13.6115138,21.5745986 13.4035503,21.4901207 13.1676282,21.4269773 C13.1163708,21.4467634 13.0238659,21.5209182 12.9558679,21.5028526 C12.2084073,21.3049919 11.4393738,21.2127716 10.713141,20.8991193 C10.1720907,20.6652996 9.64760848,20.4084248 9.1800789,20.070169 C8.83922584,19.8237894 8.53616864,19.503255 8.29903846,19.1316209 C8.02342209,18.6995964 7.74469921,18.2742818 7.60438856,17.7751567 C7.59282544,17.7343802 7.54812623,17.701174 7.54156805,17.6609136 C7.50549803,17.4399978 7.45424063,17.2185659 7.44958087,16.9964457 C7.43698225,16.3866906 7.41730769,15.7748708 7.45596647,15.1673524 C7.47840237,14.8177411 7.554857,14.4645167 7.61422584,14.1152495 C7.67152367,13.7788863 7.75073964,13.4495772 7.81459566,13.1159669 C7.88656312,12.7398594 8.03170611,12.3907643 8.1556213,12.0347871 C8.25520217,11.7491794 8.34408284,11.4468827 8.49267751,11.1912122 C8.7489645,10.7498968 8.91809665,10.2691813 9.19526627,9.83319946 C9.46087278,9.41528321 9.70870316,8.98171015 9.98880671,8.57033191 C10.1313609,8.36059955 10.2723619,8.14364097 10.4494329,7.96470606 C10.8836538,7.52579937 11.2869822,7.04972927 11.8054241,6.70235467 C12.2539694,6.40195048 12.6923323,6.10085808 13.218713,5.91211616 C13.7426775,5.72440656 14.2590483,5.58555995 14.8106262,5.5518376 C14.9088264,5.54581575 15.0044379,5.49282349 15.1060897,5.45996141 C15.1383629,5.48817807 15.1728797,5.5179432 15.2080868,5.5485686 C15.2282791,5.53170742 15.2503698,5.51346983 15.274359,5.49368376 C15.3646203,5.51398599 15.4650641,5.51845936 15.5470414,5.55940792 C15.6607742,5.6163574 15.7206607,5.42761548 15.8625247,5.5274061 C15.9577909,5.5945067 16.1322732,5.54633191 16.270858,5.55665508 C16.3885602,5.56525772 16.5247288,5.50572745 16.6129191,5.63872427 C16.7478797,5.43983123 16.8705868,5.67674793 17.0010602,5.64973564 C17.1732988,5.61394866 17.322929,5.69395321 17.480498,5.74092363 C17.6211538,5.78273246 17.7675049,5.80561548 17.9112673,5.83692909 C18.0552022,5.8682427 18.21536,5.86944707 18.3401381,5.9360315 C18.8666913,6.21682167 19.4976578,6.30370833 19.9175542,6.77117579 C20.2363166,6.76188494 20.433925,6.99398416 20.6598373,7.14728321 C21.4687377,7.69647574 22.1469921,8.39673064 22.8086785,9.10541612 C23.4565582,9.79930506 23.9977811,10.5831776 24.3339744,11.4745832 C24.512426,11.9473843 24.7141765,12.4176046 24.7807939,12.9366879 C24.8234221,13.26961 24.9207594,13.6030483 24.9485454,13.9402718 C24.9765039,14.2819687 24.9545858,14.6277948 24.9545858,14.9719004 C24.9545858,15.2220652 24.957002,15.472402 24.954068,15.7225668 C24.9511341,15.9766888 24.971499,16.2232404 24.8106509,16.4635982 C24.718146,16.6017566 24.740927,16.8166505 24.7117604,16.9971339 C24.8921105,17.0960643 24.5516026,17.2719022 24.7566321,17.3615417 C24.6230523,17.6204812 24.489645,17.8785604 24.3552022,18.1392204 C24.3103304,18.0986159 24.2799556,18.0611084 24.2407791,18.0396018 C24.2178254,18.027042 24.1807199,18.0399459 24.133432,18.0420106 C24.1015039,18.157458 24.2364645,18.1684694 24.2801282,18.2806478 L24.2801282,18.662605 C24.2381903,18.7044138 24.1827909,18.7598148 24.1156558,18.8267434 C24.1377465,18.8554762 24.1613905,18.8859295 24.1883136,18.9206842 C23.989497,19.1199214 23.964645,19.4101744 23.8258876,19.6451985 C23.6686637,19.9113642 23.5285256,20.1894016 23.3086538,20.3814125 C23.1559172,20.340808 23.0344181,20.3086341 22.9129191,20.2764603 C22.9053254,20.2989992 22.8977318,20.3215381 22.8901381,20.344077 C22.946573,20.3685085 23.0030079,20.3931121 23.0930966,20.4321681 C23.0078402,20.490494 22.9336292,20.5410775 22.8595907,20.591661 C22.8708087,20.6128235 22.8820266,20.633986 22.8932446,20.6549764 C22.967283,20.6384594 23.0414941,20.6221143 23.1441815,20.5990593 C23.1512574,20.6553205 23.1612673,20.7346369 23.1717949,20.8177384 C23.1039694,20.842514 23.0496055,20.8623001 22.970217,20.8912049 C22.9898915,20.9835973 23.0100838,21.0796027 23.0401134,21.2217183 C22.9313856,21.2834853 22.7848619,21.367275 22.6165927,21.4631084 C22.5470414,21.6195044 22.4647189,21.8042891 22.382569,21.9887297 C22.3965483,21.9971603 22.4107002,22.0055909 22.4248521,22.0136774 C22.0824458,22.3550301 21.763856,22.7249437 21.3917653,23.0301653 C20.9451183,23.3964657 20.4644724,23.7257748 19.977786,24.0390829 C19.2877959,24.4834953 18.5812377,24.9022718 17.8753698,25.3215645 C17.7916667,25.3712878 17.668787,25.3552869 17.5428008,25.3728362 C17.3862673,25.6567234 17.0428254,25.6950911 16.7772189,25.8506269 C16.529216,25.9958394 16.2489398,26.0868554 15.9712525,26.2067762 C15.9405325,26.1451813 15.90964,26.0832422 15.8782298,26.0202709 C15.7232495,26.3968945 15.3283777,26.4024002 15.0172091,26.5541508 C14.9756164,26.5309236 14.9153846,26.4973733 14.8323718,26.450747 C14.8076923,26.5305795 14.7914694,26.5839159 14.775074,26.6369082 C14.7640286,26.6480916 14.7490138,26.6708026 14.742283,26.6683938 C14.5488166,26.6050784 14.3853797,26.727752 14.2188363,26.7736901 C13.4218442,26.99495 12.6089744,26.9235481 11.8005917,26.9601954 C11.1792899,26.98824 10.5717949,26.8765777 9.95739645,26.8447479 C9.72371795,26.8327042 9.46932939,26.8099933 9.24773176,26.747366 C9.0188856,26.6826742 8.79142012,26.7182891 8.57827909,26.6618558 C8.3081854,26.5904539 8.03809172,26.5271385 7.76592702,26.4650274 C7.46960059,26.3975827 7.17569034,26.3082873 6.88764793,26.2040233 C6.60081361,26.1001034 6.30448718,26.0221635 6.01799803,25.9178995 C5.73219921,25.8139796 5.45727318,25.6804666 5.17061144,25.5792996 C4.33392505,25.284057 3.63012821,24.7513815 2.8714497,24.3166041 C2.52593688,23.9212268 2.1127712,23.5944985 1.7841716,23.1752058 C1.52512327,22.8450365 1.30266272,22.4935326 1.08589744,22.142889 C0.852046351,21.7645449 0.698619329,21.3349291 0.573668639,20.9023884 C0.442332347,20.4485131 0.321005917,19.9930893 0.287524655,19.5180515 C0.278377712,19.3888399 0.224013807,19.2632413 0.197953649,19.1343738 C0.171548323,19.004818 0.255078895,18.8523792 0.11183432,18.7457065 C0.0956114398,18.7336628 0.104585799,18.6875527 0.102687377,18.6574434 C0.0712771203,18.1230474 0.0272682446,17.5889955 0.011908284,17.0540834 C-0.00379684418,16.5071275 0.00621301775,15.9594835 0.0120808679,15.4121835 C0.0127712032,15.3617721 0.0652366864,15.3120488 0.0937130178,15.2619814 C0.0669625247,15.2320442 0.0364151874,15.1979778 3.65929509e-13,15.1572013 C0.0339990138,15.078057 0.105621302,14.9939232 0.096474359,14.9195964 C0.0395216963,14.4550538 0.216074951,14.0102973 0.19933432,13.5500561 C0.195192308,13.4337484 0.148076923,13.2967944 0.283900394,13.21094 C0.13754931,13.1090848 0.306508876,13.0175527 0.297189349,12.9156974 C0.286489152,12.8012823 0.274753452,12.6880716 0.352761341,12.5645376 C0.452859961,12.4057329 0.322214004,12.171397 0.479092702,12.0088071 C0.481163708,11.5122627 0.713806706,11.0719796 0.820290927,10.6019314 C0.901923077,10.2418249 1.03774655,9.9128599 1.18392505,9.57770105 C1.30438856,9.30190041 1.3711785,9.00184033 1.47904339,8.71502832 C1.73481262,8.03524771 2.04943294,7.38385581 2.37147436,6.7379696 C2.58582347,6.30835376 2.90751972,5.93396687 3.12393984,5.4997056 C3.40784024,5.36533237 3.46410256,5.04307747 3.66947732,4.83351716 C3.87951183,4.61948348 4.06797337,4.37379208 4.2831854,4.1568335 C4.50374753,3.93454129 4.71844181,3.70553901 4.95022189,3.49511844 C5.32852564,3.15118489 5.75998521,2.8690183 6.14726331,2.5402254 C6.53851085,2.20799145 6.99085306,1.98673155 7.4150641,1.72125408 C7.815286,1.4707452 8.27504931,1.29766009 8.72928994,1.15640474 C9.04908777,1.05713027 9.34765779,0.903487123 9.67970907,0.832429317 C10.0921844,0.744338284 10.4922337,0.599813933 10.9005671,0.4902163 C11.0717702,0.444106149 11.293713,0.478860815 11.4153846,0.381134825 C11.5974606,0.235061998 11.8121548,0.384059722 11.9764546,0.244869008 C12.1198718,0.123571784 12.3526874,0.304571329 12.4864398,0.113248616 C12.4916174,0.105850346 12.5168146,0.109979613 12.532002,0.112560405 C12.9196252,0.181897683 13.2844675,-0.00237086471 13.6698471,0.0148344152 C14.0455621,0.0315235367 14.433358,-0.0378137414 14.7966469,0.0313514839 C15.3830868,0.143013751 15.9940335,0.149207651 16.5402613,0.476796181 C16.9515286,0.723519895 17.2998028,0.994158949 17.4839497,1.44201239 C17.5117357,1.50945708 17.5131164,1.587397 17.5253698,1.65329322" id="Fill-5"></path>
        </g>
        <g id="36" transform="translate(665.000000, 150.000000)" fill="#000000">
            <path d="M6.21469409,1.48688655 C6.12169298,1.48688655 6.07956095,1.4997009 6.05218485,1.48494498 C5.6541634,1.27098418 5.31283573,1.36049047 4.99014712,1.65327893 C4.78861236,1.83617464 4.57834054,2.03537952 4.35428359,2.1631347 C3.88190008,2.43223603 3.64658203,2.89782405 3.32253433,3.2787597 C2.94334609,3.72473788 2.71074624,4.28099713 2.44882871,4.81318093 C2.06672811,5.59077893 1.90285977,6.40817908 1.82908019,7.25314949 C1.78151177,7.79950674 1.89354024,8.3291665 2.02226621,8.86076784 C2.06459239,9.03589727 2.19953137,9.19374676 2.1562344,9.38965097 C2.37796147,9.47663322 2.11604394,9.75020016 2.35388603,9.86533514 C2.50202767,9.93678485 2.59347553,10.1255053 2.71035792,10.261415 C2.73288011,10.287432 2.76375104,10.3093718 2.77773033,10.3392719 C2.97557612,10.7633104 3.36233647,10.9879498 3.72929283,11.2275393 C4.10731613,11.4745067 4.55271184,11.6075042 4.98102175,11.6346861 C5.63183536,11.6756532 6.30031724,11.7451613 6.94472368,11.5457623 C7.28857538,11.4391702 7.6557259,11.4036395 7.97627878,11.2287042 C8.60029875,10.8881532 9.23344409,10.585851 9.79999365,10.1222046 C10.5257518,9.52808477 11.1136586,8.84989506 11.5617725,8.04472679 C11.7662196,7.6769938 11.926399,7.27664247 12.0483294,6.87337878 C12.172784,6.46215467 12.2576305,6.03267982 12.3024807,5.60514653 C12.3653875,5.00830852 12.2593779,4.41748936 12.0925972,3.84472679 C12.0067799,3.54941429 11.9056242,3.24051081 11.732048,2.9933492 C11.5322607,2.70929779 11.2767503,2.43747827 10.9872625,2.25069942 C10.6637973,2.0417867 10.3449918,1.76550156 9.91202212,1.78938285 C9.81979764,1.55056998 9.67223847,1.83015578 9.540406,1.74608588 C9.29188529,1.58745977 9.00317412,1.51581591 8.72125844,1.42611547 C8.54632316,1.37039247 8.38264897,1.41679594 8.21761569,1.36942168 C7.81726436,1.25486917 7.81629357,1.2628296 7.39574993,1.36534439 C7.36604394,1.37252819 7.32002878,1.31253374 7.27925585,1.28224528 C7.21013603,1.34689949 7.13713307,1.41504853 7.0637418,1.4839742 C6.92006576,1.29117649 6.77172996,1.39757442 6.6259182,1.46863581 C6.56204061,1.40456406 6.49971628,1.34223973 6.43545038,1.27816798 C6.36108832,1.34845275 6.28653211,1.41893167 6.21469409,1.48688655 M7.18120666,13.1362948 C6.91385274,13.1362948 6.71891931,13.1477501 6.52573329,13.1341591 C5.92326473,13.0920271 5.3291449,13.0229073 4.74337382,12.8425356 C4.43233462,12.7468163 4.0863472,12.7233233 3.78656909,12.5940149 C3.47339416,12.4588817 3.1392503,12.3660748 2.86471258,12.126097 C2.6142503,11.9070881 2.32942227,11.7179794 2.05391377,11.5300356 C1.62036162,11.2337523 1.28913011,10.8722323 1.05750104,10.4089742 C0.778886029,10.2763651 0.783545792,9.95425896 0.617541724,9.74107479 C0.460663026,9.53915171 0.402610141,9.26519646 0.291552449,9.03376155 C0.208453336,8.86076784 0.348246236,8.63108034 0.131178928,8.51672198 C0.173116798,8.28936436 0.0525454222,8.08549971 0.0341005258,7.87173307 C0.00245296662,7.50400008 -0.0241465156,7.12325859 0.035847937,6.76290356 C0.154671902,6.04976562 0.315045422,5.34750045 0.587447419,4.66523344 C0.853636399,3.99830482 1.28311125,3.43680334 1.62016746,2.81783145 C1.70113085,2.66930149 1.84247701,2.52853781 1.9908128,2.44893352 C2.14710903,2.36466946 2.07041709,2.08333625 2.3158313,2.10877079 C2.57075918,1.72434032 2.95111236,1.48183847 3.31243817,1.21545534 C3.76734757,0.880146534 4.27293189,0.650264878 4.80336828,0.469504892 C5.02393041,0.394366209 5.26973292,0.354952378 5.48466451,0.34388544 C5.86482353,0.324275602 6.2178006,0.238652452 6.55776916,0.103907629 C7.03364749,-0.0846186283 7.51962198,0.0505145078 7.9982185,0.00430518829 C8.15218485,0.169338472 8.35935016,0.129148014 8.53506206,0.100412807 C8.72747146,0.0691535611 8.84687789,0.211858813 9.02142486,0.224284848 C9.61884535,0.266999345 10.1675325,0.508336253 10.7272865,0.699386549 C11.3384922,0.907910958 11.8877618,1.2372009 12.420528,1.59386695 C13.2084164,2.12119683 13.8361253,2.79162028 14.2240506,3.66707331 C14.3710273,3.99869313 14.4591745,4.34642797 14.5508165,4.69882257 C14.6993465,5.27158514 14.6420702,5.84007627 14.6261493,6.40546088 C14.6121701,6.89648344 14.4510199,7.37721569 14.2700658,7.84047383 C14.1333794,8.18956776 13.9964988,8.5386617 13.8572884,8.88678485 C13.8452507,8.91707331 13.7951582,8.94017797 13.7957407,8.96600082 C13.8042836,9.47973973 13.4501416,9.78903152 13.1478394,10.1280293 C13.0793021,10.2049154 12.986301,10.2728703 12.9497995,10.3633473 C12.7047736,10.9716406 12.1578339,11.2787967 11.6794315,11.6519661 C11.1831667,12.0391147 10.6158405,12.3117109 10.0516209,12.5773174 C9.56118078,12.8081698 9.02783203,12.9219457 8.4962307,13.0446528 C8.0296719,13.1524098 7.5702969,13.1112486 7.18120666,13.1362948" id="Fill-239"></path>
        </g>
        <g id="36" transform="translate(976.000000, 29.000000)" fill="#000000">
            <path d="M6.21469409,1.48688655 C6.12169298,1.48688655 6.07956095,1.4997009 6.05218485,1.48494498 C5.6541634,1.27098418 5.31283573,1.36049047 4.99014712,1.65327893 C4.78861236,1.83617464 4.57834054,2.03537952 4.35428359,2.1631347 C3.88190008,2.43223603 3.64658203,2.89782405 3.32253433,3.2787597 C2.94334609,3.72473788 2.71074624,4.28099713 2.44882871,4.81318093 C2.06672811,5.59077893 1.90285977,6.40817908 1.82908019,7.25314949 C1.78151177,7.79950674 1.89354024,8.3291665 2.02226621,8.86076784 C2.06459239,9.03589727 2.19953137,9.19374676 2.1562344,9.38965097 C2.37796147,9.47663322 2.11604394,9.75020016 2.35388603,9.86533514 C2.50202767,9.93678485 2.59347553,10.1255053 2.71035792,10.261415 C2.73288011,10.287432 2.76375104,10.3093718 2.77773033,10.3392719 C2.97557612,10.7633104 3.36233647,10.9879498 3.72929283,11.2275393 C4.10731613,11.4745067 4.55271184,11.6075042 4.98102175,11.6346861 C5.63183536,11.6756532 6.30031724,11.7451613 6.94472368,11.5457623 C7.28857538,11.4391702 7.6557259,11.4036395 7.97627878,11.2287042 C8.60029875,10.8881532 9.23344409,10.585851 9.79999365,10.1222046 C10.5257518,9.52808477 11.1136586,8.84989506 11.5617725,8.04472679 C11.7662196,7.6769938 11.926399,7.27664247 12.0483294,6.87337878 C12.172784,6.46215467 12.2576305,6.03267982 12.3024807,5.60514653 C12.3653875,5.00830852 12.2593779,4.41748936 12.0925972,3.84472679 C12.0067799,3.54941429 11.9056242,3.24051081 11.732048,2.9933492 C11.5322607,2.70929779 11.2767503,2.43747827 10.9872625,2.25069942 C10.6637973,2.0417867 10.3449918,1.76550156 9.91202212,1.78938285 C9.81979764,1.55056998 9.67223847,1.83015578 9.540406,1.74608588 C9.29188529,1.58745977 9.00317412,1.51581591 8.72125844,1.42611547 C8.54632316,1.37039247 8.38264897,1.41679594 8.21761569,1.36942168 C7.81726436,1.25486917 7.81629357,1.2628296 7.39574993,1.36534439 C7.36604394,1.37252819 7.32002878,1.31253374 7.27925585,1.28224528 C7.21013603,1.34689949 7.13713307,1.41504853 7.0637418,1.4839742 C6.92006576,1.29117649 6.77172996,1.39757442 6.6259182,1.46863581 C6.56204061,1.40456406 6.49971628,1.34223973 6.43545038,1.27816798 C6.36108832,1.34845275 6.28653211,1.41893167 6.21469409,1.48688655 M7.18120666,13.1362948 C6.91385274,13.1362948 6.71891931,13.1477501 6.52573329,13.1341591 C5.92326473,13.0920271 5.3291449,13.0229073 4.74337382,12.8425356 C4.43233462,12.7468163 4.0863472,12.7233233 3.78656909,12.5940149 C3.47339416,12.4588817 3.1392503,12.3660748 2.86471258,12.126097 C2.6142503,11.9070881 2.32942227,11.7179794 2.05391377,11.5300356 C1.62036162,11.2337523 1.28913011,10.8722323 1.05750104,10.4089742 C0.778886029,10.2763651 0.783545792,9.95425896 0.617541724,9.74107479 C0.460663026,9.53915171 0.402610141,9.26519646 0.291552449,9.03376155 C0.208453336,8.86076784 0.348246236,8.63108034 0.131178928,8.51672198 C0.173116798,8.28936436 0.0525454222,8.08549971 0.0341005258,7.87173307 C0.00245296662,7.50400008 -0.0241465156,7.12325859 0.035847937,6.76290356 C0.154671902,6.04976562 0.315045422,5.34750045 0.587447419,4.66523344 C0.853636399,3.99830482 1.28311125,3.43680334 1.62016746,2.81783145 C1.70113085,2.66930149 1.84247701,2.52853781 1.9908128,2.44893352 C2.14710903,2.36466946 2.07041709,2.08333625 2.3158313,2.10877079 C2.57075918,1.72434032 2.95111236,1.48183847 3.31243817,1.21545534 C3.76734757,0.880146534 4.27293189,0.650264878 4.80336828,0.469504892 C5.02393041,0.394366209 5.26973292,0.354952378 5.48466451,0.34388544 C5.86482353,0.324275602 6.2178006,0.238652452 6.55776916,0.103907629 C7.03364749,-0.0846186283 7.51962198,0.0505145078 7.9982185,0.00430518829 C8.15218485,0.169338472 8.35935016,0.129148014 8.53506206,0.100412807 C8.72747146,0.0691535611 8.84687789,0.211858813 9.02142486,0.224284848 C9.61884535,0.266999345 10.1675325,0.508336253 10.7272865,0.699386549 C11.3384922,0.907910958 11.8877618,1.2372009 12.420528,1.59386695 C13.2084164,2.12119683 13.8361253,2.79162028 14.2240506,3.66707331 C14.3710273,3.99869313 14.4591745,4.34642797 14.5508165,4.69882257 C14.6993465,5.27158514 14.6420702,5.84007627 14.6261493,6.40546088 C14.6121701,6.89648344 14.4510199,7.37721569 14.2700658,7.84047383 C14.1333794,8.18956776 13.9964988,8.5386617 13.8572884,8.88678485 C13.8452507,8.91707331 13.7951582,8.94017797 13.7957407,8.96600082 C13.8042836,9.47973973 13.4501416,9.78903152 13.1478394,10.1280293 C13.0793021,10.2049154 12.986301,10.2728703 12.9497995,10.3633473 C12.7047736,10.9716406 12.1578339,11.2787967 11.6794315,11.6519661 C11.1831667,12.0391147 10.6158405,12.3117109 10.0516209,12.5773174 C9.56118078,12.8081698 9.02783203,12.9219457 8.4962307,13.0446528 C8.0296719,13.1524098 7.5702969,13.1112486 7.18120666,13.1362948" id="Fill-239"></path>
        </g>
        <g id="36" transform="translate(214.000000, 70.000000)" fill="#000000">
            <path d="M6.21469409,1.48688655 C6.12169298,1.48688655 6.07956095,1.4997009 6.05218485,1.48494498 C5.6541634,1.27098418 5.31283573,1.36049047 4.99014712,1.65327893 C4.78861236,1.83617464 4.57834054,2.03537952 4.35428359,2.1631347 C3.88190008,2.43223603 3.64658203,2.89782405 3.32253433,3.2787597 C2.94334609,3.72473788 2.71074624,4.28099713 2.44882871,4.81318093 C2.06672811,5.59077893 1.90285977,6.40817908 1.82908019,7.25314949 C1.78151177,7.79950674 1.89354024,8.3291665 2.02226621,8.86076784 C2.06459239,9.03589727 2.19953137,9.19374676 2.1562344,9.38965097 C2.37796147,9.47663322 2.11604394,9.75020016 2.35388603,9.86533514 C2.50202767,9.93678485 2.59347553,10.1255053 2.71035792,10.261415 C2.73288011,10.287432 2.76375104,10.3093718 2.77773033,10.3392719 C2.97557612,10.7633104 3.36233647,10.9879498 3.72929283,11.2275393 C4.10731613,11.4745067 4.55271184,11.6075042 4.98102175,11.6346861 C5.63183536,11.6756532 6.30031724,11.7451613 6.94472368,11.5457623 C7.28857538,11.4391702 7.6557259,11.4036395 7.97627878,11.2287042 C8.60029875,10.8881532 9.23344409,10.585851 9.79999365,10.1222046 C10.5257518,9.52808477 11.1136586,8.84989506 11.5617725,8.04472679 C11.7662196,7.6769938 11.926399,7.27664247 12.0483294,6.87337878 C12.172784,6.46215467 12.2576305,6.03267982 12.3024807,5.60514653 C12.3653875,5.00830852 12.2593779,4.41748936 12.0925972,3.84472679 C12.0067799,3.54941429 11.9056242,3.24051081 11.732048,2.9933492 C11.5322607,2.70929779 11.2767503,2.43747827 10.9872625,2.25069942 C10.6637973,2.0417867 10.3449918,1.76550156 9.91202212,1.78938285 C9.81979764,1.55056998 9.67223847,1.83015578 9.540406,1.74608588 C9.29188529,1.58745977 9.00317412,1.51581591 8.72125844,1.42611547 C8.54632316,1.37039247 8.38264897,1.41679594 8.21761569,1.36942168 C7.81726436,1.25486917 7.81629357,1.2628296 7.39574993,1.36534439 C7.36604394,1.37252819 7.32002878,1.31253374 7.27925585,1.28224528 C7.21013603,1.34689949 7.13713307,1.41504853 7.0637418,1.4839742 C6.92006576,1.29117649 6.77172996,1.39757442 6.6259182,1.46863581 C6.56204061,1.40456406 6.49971628,1.34223973 6.43545038,1.27816798 C6.36108832,1.34845275 6.28653211,1.41893167 6.21469409,1.48688655 M7.18120666,13.1362948 C6.91385274,13.1362948 6.71891931,13.1477501 6.52573329,13.1341591 C5.92326473,13.0920271 5.3291449,13.0229073 4.74337382,12.8425356 C4.43233462,12.7468163 4.0863472,12.7233233 3.78656909,12.5940149 C3.47339416,12.4588817 3.1392503,12.3660748 2.86471258,12.126097 C2.6142503,11.9070881 2.32942227,11.7179794 2.05391377,11.5300356 C1.62036162,11.2337523 1.28913011,10.8722323 1.05750104,10.4089742 C0.778886029,10.2763651 0.783545792,9.95425896 0.617541724,9.74107479 C0.460663026,9.53915171 0.402610141,9.26519646 0.291552449,9.03376155 C0.208453336,8.86076784 0.348246236,8.63108034 0.131178928,8.51672198 C0.173116798,8.28936436 0.0525454222,8.08549971 0.0341005258,7.87173307 C0.00245296662,7.50400008 -0.0241465156,7.12325859 0.035847937,6.76290356 C0.154671902,6.04976562 0.315045422,5.34750045 0.587447419,4.66523344 C0.853636399,3.99830482 1.28311125,3.43680334 1.62016746,2.81783145 C1.70113085,2.66930149 1.84247701,2.52853781 1.9908128,2.44893352 C2.14710903,2.36466946 2.07041709,2.08333625 2.3158313,2.10877079 C2.57075918,1.72434032 2.95111236,1.48183847 3.31243817,1.21545534 C3.76734757,0.880146534 4.27293189,0.650264878 4.80336828,0.469504892 C5.02393041,0.394366209 5.26973292,0.354952378 5.48466451,0.34388544 C5.86482353,0.324275602 6.2178006,0.238652452 6.55776916,0.103907629 C7.03364749,-0.0846186283 7.51962198,0.0505145078 7.9982185,0.00430518829 C8.15218485,0.169338472 8.35935016,0.129148014 8.53506206,0.100412807 C8.72747146,0.0691535611 8.84687789,0.211858813 9.02142486,0.224284848 C9.61884535,0.266999345 10.1675325,0.508336253 10.7272865,0.699386549 C11.3384922,0.907910958 11.8877618,1.2372009 12.420528,1.59386695 C13.2084164,2.12119683 13.8361253,2.79162028 14.2240506,3.66707331 C14.3710273,3.99869313 14.4591745,4.34642797 14.5508165,4.69882257 C14.6993465,5.27158514 14.6420702,5.84007627 14.6261493,6.40546088 C14.6121701,6.89648344 14.4510199,7.37721569 14.2700658,7.84047383 C14.1333794,8.18956776 13.9964988,8.5386617 13.8572884,8.88678485 C13.8452507,8.91707331 13.7951582,8.94017797 13.7957407,8.96600082 C13.8042836,9.47973973 13.4501416,9.78903152 13.1478394,10.1280293 C13.0793021,10.2049154 12.986301,10.2728703 12.9497995,10.3633473 C12.7047736,10.9716406 12.1578339,11.2787967 11.6794315,11.6519661 C11.1831667,12.0391147 10.6158405,12.3117109 10.0516209,12.5773174 C9.56118078,12.8081698 9.02783203,12.9219457 8.4962307,13.0446528 C8.0296719,13.1524098 7.5702969,13.1112486 7.18120666,13.1362948" id="Fill-239"></path>
        </g>
        <g id="36" transform="translate(290.000000, 348.000000)" fill="#000000">
            <path d="M6.21469409,1.48688655 C6.12169298,1.48688655 6.07956095,1.4997009 6.05218485,1.48494498 C5.6541634,1.27098418 5.31283573,1.36049047 4.99014712,1.65327893 C4.78861236,1.83617464 4.57834054,2.03537952 4.35428359,2.1631347 C3.88190008,2.43223603 3.64658203,2.89782405 3.32253433,3.2787597 C2.94334609,3.72473788 2.71074624,4.28099713 2.44882871,4.81318093 C2.06672811,5.59077893 1.90285977,6.40817908 1.82908019,7.25314949 C1.78151177,7.79950674 1.89354024,8.3291665 2.02226621,8.86076784 C2.06459239,9.03589727 2.19953137,9.19374676 2.1562344,9.38965097 C2.37796147,9.47663322 2.11604394,9.75020016 2.35388603,9.86533514 C2.50202767,9.93678485 2.59347553,10.1255053 2.71035792,10.261415 C2.73288011,10.287432 2.76375104,10.3093718 2.77773033,10.3392719 C2.97557612,10.7633104 3.36233647,10.9879498 3.72929283,11.2275393 C4.10731613,11.4745067 4.55271184,11.6075042 4.98102175,11.6346861 C5.63183536,11.6756532 6.30031724,11.7451613 6.94472368,11.5457623 C7.28857538,11.4391702 7.6557259,11.4036395 7.97627878,11.2287042 C8.60029875,10.8881532 9.23344409,10.585851 9.79999365,10.1222046 C10.5257518,9.52808477 11.1136586,8.84989506 11.5617725,8.04472679 C11.7662196,7.6769938 11.926399,7.27664247 12.0483294,6.87337878 C12.172784,6.46215467 12.2576305,6.03267982 12.3024807,5.60514653 C12.3653875,5.00830852 12.2593779,4.41748936 12.0925972,3.84472679 C12.0067799,3.54941429 11.9056242,3.24051081 11.732048,2.9933492 C11.5322607,2.70929779 11.2767503,2.43747827 10.9872625,2.25069942 C10.6637973,2.0417867 10.3449918,1.76550156 9.91202212,1.78938285 C9.81979764,1.55056998 9.67223847,1.83015578 9.540406,1.74608588 C9.29188529,1.58745977 9.00317412,1.51581591 8.72125844,1.42611547 C8.54632316,1.37039247 8.38264897,1.41679594 8.21761569,1.36942168 C7.81726436,1.25486917 7.81629357,1.2628296 7.39574993,1.36534439 C7.36604394,1.37252819 7.32002878,1.31253374 7.27925585,1.28224528 C7.21013603,1.34689949 7.13713307,1.41504853 7.0637418,1.4839742 C6.92006576,1.29117649 6.77172996,1.39757442 6.6259182,1.46863581 C6.56204061,1.40456406 6.49971628,1.34223973 6.43545038,1.27816798 C6.36108832,1.34845275 6.28653211,1.41893167 6.21469409,1.48688655 M7.18120666,13.1362948 C6.91385274,13.1362948 6.71891931,13.1477501 6.52573329,13.1341591 C5.92326473,13.0920271 5.3291449,13.0229073 4.74337382,12.8425356 C4.43233462,12.7468163 4.0863472,12.7233233 3.78656909,12.5940149 C3.47339416,12.4588817 3.1392503,12.3660748 2.86471258,12.126097 C2.6142503,11.9070881 2.32942227,11.7179794 2.05391377,11.5300356 C1.62036162,11.2337523 1.28913011,10.8722323 1.05750104,10.4089742 C0.778886029,10.2763651 0.783545792,9.95425896 0.617541724,9.74107479 C0.460663026,9.53915171 0.402610141,9.26519646 0.291552449,9.03376155 C0.208453336,8.86076784 0.348246236,8.63108034 0.131178928,8.51672198 C0.173116798,8.28936436 0.0525454222,8.08549971 0.0341005258,7.87173307 C0.00245296662,7.50400008 -0.0241465156,7.12325859 0.035847937,6.76290356 C0.154671902,6.04976562 0.315045422,5.34750045 0.587447419,4.66523344 C0.853636399,3.99830482 1.28311125,3.43680334 1.62016746,2.81783145 C1.70113085,2.66930149 1.84247701,2.52853781 1.9908128,2.44893352 C2.14710903,2.36466946 2.07041709,2.08333625 2.3158313,2.10877079 C2.57075918,1.72434032 2.95111236,1.48183847 3.31243817,1.21545534 C3.76734757,0.880146534 4.27293189,0.650264878 4.80336828,0.469504892 C5.02393041,0.394366209 5.26973292,0.354952378 5.48466451,0.34388544 C5.86482353,0.324275602 6.2178006,0.238652452 6.55776916,0.103907629 C7.03364749,-0.0846186283 7.51962198,0.0505145078 7.9982185,0.00430518829 C8.15218485,0.169338472 8.35935016,0.129148014 8.53506206,0.100412807 C8.72747146,0.0691535611 8.84687789,0.211858813 9.02142486,0.224284848 C9.61884535,0.266999345 10.1675325,0.508336253 10.7272865,0.699386549 C11.3384922,0.907910958 11.8877618,1.2372009 12.420528,1.59386695 C13.2084164,2.12119683 13.8361253,2.79162028 14.2240506,3.66707331 C14.3710273,3.99869313 14.4591745,4.34642797 14.5508165,4.69882257 C14.6993465,5.27158514 14.6420702,5.84007627 14.6261493,6.40546088 C14.6121701,6.89648344 14.4510199,7.37721569 14.2700658,7.84047383 C14.1333794,8.18956776 13.9964988,8.5386617 13.8572884,8.88678485 C13.8452507,8.91707331 13.7951582,8.94017797 13.7957407,8.96600082 C13.8042836,9.47973973 13.4501416,9.78903152 13.1478394,10.1280293 C13.0793021,10.2049154 12.986301,10.2728703 12.9497995,10.3633473 C12.7047736,10.9716406 12.1578339,11.2787967 11.6794315,11.6519661 C11.1831667,12.0391147 10.6158405,12.3117109 10.0516209,12.5773174 C9.56118078,12.8081698 9.02783203,12.9219457 8.4962307,13.0446528 C8.0296719,13.1524098 7.5702969,13.1112486 7.18120666,13.1362948" id="Fill-239"></path>
        </g>
        <g id="5" transform="translate(700.000000, 27.000000)" fill="#000000">
            <path d="M4.26785146,0.402690284 C4.5571451,0.181739841 4.79181596,0.26017919 5.09495945,0.670626675 C5.41117616,1.09867771 5.47680116,1.62458378 5.64079895,2.11114073 C5.73399421,2.38736114 5.79948977,2.67445434 5.85644244,2.96077091 C5.89850974,3.17175463 5.97591359,3.19583008 6.1663167,3.10664739 C6.85673829,2.78292327 7.55414954,2.47447283 8.25039584,2.16356307 C8.38954155,2.10130345 8.53192321,2.04202091 8.67844687,2.00215404 C8.87066211,1.94999058 9.07905708,1.90649946 8.90263326,2.24549724 C9.4038167,2.1055749 9.84105782,2.46761262 9.8242309,2.93371839 C9.81750013,3.11596691 9.70475974,3.14301943 9.60379821,3.20074872 C8.62731892,3.75914369 7.64915693,4.31469102 6.66957113,4.86739073 C6.24682705,5.10594472 6.27685664,5.16419176 6.46156448,5.60894028 C6.64446019,6.04915848 6.72988918,6.53700981 6.80845797,7.01217623 C6.95808815,7.91604088 7.16428267,8.79958378 7.55376122,9.63381085 C7.62792912,9.79288999 7.71724125,9.99546025 7.55660886,10.1164847 C7.4285948,10.2129159 7.22473016,10.3351052 7.05633149,10.1207561 C7.03665693,10.0955157 6.99666063,10.0741585 6.96481892,10.0720875 C6.21123164,10.0244543 5.97850235,9.4459965 5.75315102,8.87181011 C5.41596537,8.0128604 5.1792235,7.1207746 4.93186773,6.23373688 C4.85433445,5.95570434 4.78845057,5.90121099 4.51779599,6.04656972 C3.70078415,6.48458747 2.89218578,6.93813777 2.07258519,7.37149576 C1.4850667,7.68201721 0.939356637,7.46559709 0.387821874,7.36670656 C0.234049685,7.33913629 0.0820896257,7.06006824 0.0133581168,6.86655863 C-0.0549850785,6.67382564 0.154057081,6.56173244 0.297085927,6.4662073 C1.546938,5.63159191 2.79510738,4.79309339 4.1340127,4.10409561 C4.33606522,4.000157 4.38382779,3.91343363 4.32195649,3.67358525 C4.08262587,2.74525685 3.88044392,1.80735005 3.67308445,0.870996497 C3.62804007,0.667520166 3.57212291,0.451747237 3.70389066,0.254483924 C3.80394613,0.104465432 3.91707483,-0.0326092717 4.12935294,0.00686927856 C4.38848755,0.0550201661 4.17478563,0.265356705 4.26785146,0.402690284" id="Fill-530"></path>
        </g>
        <g id="5" transform="translate(42.000000, 70.000000)" fill="#000000">
            <path d="M4.26785146,0.402690284 C4.5571451,0.181739841 4.79181596,0.26017919 5.09495945,0.670626675 C5.41117616,1.09867771 5.47680116,1.62458378 5.64079895,2.11114073 C5.73399421,2.38736114 5.79948977,2.67445434 5.85644244,2.96077091 C5.89850974,3.17175463 5.97591359,3.19583008 6.1663167,3.10664739 C6.85673829,2.78292327 7.55414954,2.47447283 8.25039584,2.16356307 C8.38954155,2.10130345 8.53192321,2.04202091 8.67844687,2.00215404 C8.87066211,1.94999058 9.07905708,1.90649946 8.90263326,2.24549724 C9.4038167,2.1055749 9.84105782,2.46761262 9.8242309,2.93371839 C9.81750013,3.11596691 9.70475974,3.14301943 9.60379821,3.20074872 C8.62731892,3.75914369 7.64915693,4.31469102 6.66957113,4.86739073 C6.24682705,5.10594472 6.27685664,5.16419176 6.46156448,5.60894028 C6.64446019,6.04915848 6.72988918,6.53700981 6.80845797,7.01217623 C6.95808815,7.91604088 7.16428267,8.79958378 7.55376122,9.63381085 C7.62792912,9.79288999 7.71724125,9.99546025 7.55660886,10.1164847 C7.4285948,10.2129159 7.22473016,10.3351052 7.05633149,10.1207561 C7.03665693,10.0955157 6.99666063,10.0741585 6.96481892,10.0720875 C6.21123164,10.0244543 5.97850235,9.4459965 5.75315102,8.87181011 C5.41596537,8.0128604 5.1792235,7.1207746 4.93186773,6.23373688 C4.85433445,5.95570434 4.78845057,5.90121099 4.51779599,6.04656972 C3.70078415,6.48458747 2.89218578,6.93813777 2.07258519,7.37149576 C1.4850667,7.68201721 0.939356637,7.46559709 0.387821874,7.36670656 C0.234049685,7.33913629 0.0820896257,7.06006824 0.0133581168,6.86655863 C-0.0549850785,6.67382564 0.154057081,6.56173244 0.297085927,6.4662073 C1.546938,5.63159191 2.79510738,4.79309339 4.1340127,4.10409561 C4.33606522,4.000157 4.38382779,3.91343363 4.32195649,3.67358525 C4.08262587,2.74525685 3.88044392,1.80735005 3.67308445,0.870996497 C3.62804007,0.667520166 3.57212291,0.451747237 3.70389066,0.254483924 C3.80394613,0.104465432 3.91707483,-0.0326092717 4.12935294,0.00686927856 C4.38848755,0.0550201661 4.17478563,0.265356705 4.26785146,0.402690284" id="Fill-530"></path>
        </g>
        <g id="5" transform="translate(89.000000, 305.000000)" fill="#000000">
            <path d="M4.26785146,0.402690284 C4.5571451,0.181739841 4.79181596,0.26017919 5.09495945,0.670626675 C5.41117616,1.09867771 5.47680116,1.62458378 5.64079895,2.11114073 C5.73399421,2.38736114 5.79948977,2.67445434 5.85644244,2.96077091 C5.89850974,3.17175463 5.97591359,3.19583008 6.1663167,3.10664739 C6.85673829,2.78292327 7.55414954,2.47447283 8.25039584,2.16356307 C8.38954155,2.10130345 8.53192321,2.04202091 8.67844687,2.00215404 C8.87066211,1.94999058 9.07905708,1.90649946 8.90263326,2.24549724 C9.4038167,2.1055749 9.84105782,2.46761262 9.8242309,2.93371839 C9.81750013,3.11596691 9.70475974,3.14301943 9.60379821,3.20074872 C8.62731892,3.75914369 7.64915693,4.31469102 6.66957113,4.86739073 C6.24682705,5.10594472 6.27685664,5.16419176 6.46156448,5.60894028 C6.64446019,6.04915848 6.72988918,6.53700981 6.80845797,7.01217623 C6.95808815,7.91604088 7.16428267,8.79958378 7.55376122,9.63381085 C7.62792912,9.79288999 7.71724125,9.99546025 7.55660886,10.1164847 C7.4285948,10.2129159 7.22473016,10.3351052 7.05633149,10.1207561 C7.03665693,10.0955157 6.99666063,10.0741585 6.96481892,10.0720875 C6.21123164,10.0244543 5.97850235,9.4459965 5.75315102,8.87181011 C5.41596537,8.0128604 5.1792235,7.1207746 4.93186773,6.23373688 C4.85433445,5.95570434 4.78845057,5.90121099 4.51779599,6.04656972 C3.70078415,6.48458747 2.89218578,6.93813777 2.07258519,7.37149576 C1.4850667,7.68201721 0.939356637,7.46559709 0.387821874,7.36670656 C0.234049685,7.33913629 0.0820896257,7.06006824 0.0133581168,6.86655863 C-0.0549850785,6.67382564 0.154057081,6.56173244 0.297085927,6.4662073 C1.546938,5.63159191 2.79510738,4.79309339 4.1340127,4.10409561 C4.33606522,4.000157 4.38382779,3.91343363 4.32195649,3.67358525 C4.08262587,2.74525685 3.88044392,1.80735005 3.67308445,0.870996497 C3.62804007,0.667520166 3.57212291,0.451747237 3.70389066,0.254483924 C3.80394613,0.104465432 3.91707483,-0.0326092717 4.12935294,0.00686927856 C4.38848755,0.0550201661 4.17478563,0.265356705 4.26785146,0.402690284" id="Fill-530"></path>
        </g>
        <g id="5" transform="translate(1069.000000, 387.000000)" fill="#000000">
            <path d="M4.26785146,0.402690284 C4.5571451,0.181739841 4.79181596,0.26017919 5.09495945,0.670626675 C5.41117616,1.09867771 5.47680116,1.62458378 5.64079895,2.11114073 C5.73399421,2.38736114 5.79948977,2.67445434 5.85644244,2.96077091 C5.89850974,3.17175463 5.97591359,3.19583008 6.1663167,3.10664739 C6.85673829,2.78292327 7.55414954,2.47447283 8.25039584,2.16356307 C8.38954155,2.10130345 8.53192321,2.04202091 8.67844687,2.00215404 C8.87066211,1.94999058 9.07905708,1.90649946 8.90263326,2.24549724 C9.4038167,2.1055749 9.84105782,2.46761262 9.8242309,2.93371839 C9.81750013,3.11596691 9.70475974,3.14301943 9.60379821,3.20074872 C8.62731892,3.75914369 7.64915693,4.31469102 6.66957113,4.86739073 C6.24682705,5.10594472 6.27685664,5.16419176 6.46156448,5.60894028 C6.64446019,6.04915848 6.72988918,6.53700981 6.80845797,7.01217623 C6.95808815,7.91604088 7.16428267,8.79958378 7.55376122,9.63381085 C7.62792912,9.79288999 7.71724125,9.99546025 7.55660886,10.1164847 C7.4285948,10.2129159 7.22473016,10.3351052 7.05633149,10.1207561 C7.03665693,10.0955157 6.99666063,10.0741585 6.96481892,10.0720875 C6.21123164,10.0244543 5.97850235,9.4459965 5.75315102,8.87181011 C5.41596537,8.0128604 5.1792235,7.1207746 4.93186773,6.23373688 C4.85433445,5.95570434 4.78845057,5.90121099 4.51779599,6.04656972 C3.70078415,6.48458747 2.89218578,6.93813777 2.07258519,7.37149576 C1.4850667,7.68201721 0.939356637,7.46559709 0.387821874,7.36670656 C0.234049685,7.33913629 0.0820896257,7.06006824 0.0133581168,6.86655863 C-0.0549850785,6.67382564 0.154057081,6.56173244 0.297085927,6.4662073 C1.546938,5.63159191 2.79510738,4.79309339 4.1340127,4.10409561 C4.33606522,4.000157 4.38382779,3.91343363 4.32195649,3.67358525 C4.08262587,2.74525685 3.88044392,1.80735005 3.67308445,0.870996497 C3.62804007,0.667520166 3.57212291,0.451747237 3.70389066,0.254483924 C3.80394613,0.104465432 3.91707483,-0.0326092717 4.12935294,0.00686927856 C4.38848755,0.0550201661 4.17478563,0.265356705 4.26785146,0.402690284" id="Fill-530"></path>
        </g>
        <g id="5" transform="translate(675.000000, 319.000000)" fill="#000000">
            <path d="M4.26785146,0.402690284 C4.5571451,0.181739841 4.79181596,0.26017919 5.09495945,0.670626675 C5.41117616,1.09867771 5.47680116,1.62458378 5.64079895,2.11114073 C5.73399421,2.38736114 5.79948977,2.67445434 5.85644244,2.96077091 C5.89850974,3.17175463 5.97591359,3.19583008 6.1663167,3.10664739 C6.85673829,2.78292327 7.55414954,2.47447283 8.25039584,2.16356307 C8.38954155,2.10130345 8.53192321,2.04202091 8.67844687,2.00215404 C8.87066211,1.94999058 9.07905708,1.90649946 8.90263326,2.24549724 C9.4038167,2.1055749 9.84105782,2.46761262 9.8242309,2.93371839 C9.81750013,3.11596691 9.70475974,3.14301943 9.60379821,3.20074872 C8.62731892,3.75914369 7.64915693,4.31469102 6.66957113,4.86739073 C6.24682705,5.10594472 6.27685664,5.16419176 6.46156448,5.60894028 C6.64446019,6.04915848 6.72988918,6.53700981 6.80845797,7.01217623 C6.95808815,7.91604088 7.16428267,8.79958378 7.55376122,9.63381085 C7.62792912,9.79288999 7.71724125,9.99546025 7.55660886,10.1164847 C7.4285948,10.2129159 7.22473016,10.3351052 7.05633149,10.1207561 C7.03665693,10.0955157 6.99666063,10.0741585 6.96481892,10.0720875 C6.21123164,10.0244543 5.97850235,9.4459965 5.75315102,8.87181011 C5.41596537,8.0128604 5.1792235,7.1207746 4.93186773,6.23373688 C4.85433445,5.95570434 4.78845057,5.90121099 4.51779599,6.04656972 C3.70078415,6.48458747 2.89218578,6.93813777 2.07258519,7.37149576 C1.4850667,7.68201721 0.939356637,7.46559709 0.387821874,7.36670656 C0.234049685,7.33913629 0.0820896257,7.06006824 0.0133581168,6.86655863 C-0.0549850785,6.67382564 0.154057081,6.56173244 0.297085927,6.4662073 C1.546938,5.63159191 2.79510738,4.79309339 4.1340127,4.10409561 C4.33606522,4.000157 4.38382779,3.91343363 4.32195649,3.67358525 C4.08262587,2.74525685 3.88044392,1.80735005 3.67308445,0.870996497 C3.62804007,0.667520166 3.57212291,0.451747237 3.70389066,0.254483924 C3.80394613,0.104465432 3.91707483,-0.0326092717 4.12935294,0.00686927856 C4.38848755,0.0550201661 4.17478563,0.265356705 4.26785146,0.402690284" id="Fill-530"></path>
        </g>
        <g id="5" transform="translate(463.000000, 198.000000)" fill="#000000">
            <path d="M4.26785146,0.402690284 C4.5571451,0.181739841 4.79181596,0.26017919 5.09495945,0.670626675 C5.41117616,1.09867771 5.47680116,1.62458378 5.64079895,2.11114073 C5.73399421,2.38736114 5.79948977,2.67445434 5.85644244,2.96077091 C5.89850974,3.17175463 5.97591359,3.19583008 6.1663167,3.10664739 C6.85673829,2.78292327 7.55414954,2.47447283 8.25039584,2.16356307 C8.38954155,2.10130345 8.53192321,2.04202091 8.67844687,2.00215404 C8.87066211,1.94999058 9.07905708,1.90649946 8.90263326,2.24549724 C9.4038167,2.1055749 9.84105782,2.46761262 9.8242309,2.93371839 C9.81750013,3.11596691 9.70475974,3.14301943 9.60379821,3.20074872 C8.62731892,3.75914369 7.64915693,4.31469102 6.66957113,4.86739073 C6.24682705,5.10594472 6.27685664,5.16419176 6.46156448,5.60894028 C6.64446019,6.04915848 6.72988918,6.53700981 6.80845797,7.01217623 C6.95808815,7.91604088 7.16428267,8.79958378 7.55376122,9.63381085 C7.62792912,9.79288999 7.71724125,9.99546025 7.55660886,10.1164847 C7.4285948,10.2129159 7.22473016,10.3351052 7.05633149,10.1207561 C7.03665693,10.0955157 6.99666063,10.0741585 6.96481892,10.0720875 C6.21123164,10.0244543 5.97850235,9.4459965 5.75315102,8.87181011 C5.41596537,8.0128604 5.1792235,7.1207746 4.93186773,6.23373688 C4.85433445,5.95570434 4.78845057,5.90121099 4.51779599,6.04656972 C3.70078415,6.48458747 2.89218578,6.93813777 2.07258519,7.37149576 C1.4850667,7.68201721 0.939356637,7.46559709 0.387821874,7.36670656 C0.234049685,7.33913629 0.0820896257,7.06006824 0.0133581168,6.86655863 C-0.0549850785,6.67382564 0.154057081,6.56173244 0.297085927,6.4662073 C1.546938,5.63159191 2.79510738,4.79309339 4.1340127,4.10409561 C4.33606522,4.000157 4.38382779,3.91343363 4.32195649,3.67358525 C4.08262587,2.74525685 3.88044392,1.80735005 3.67308445,0.870996497 C3.62804007,0.667520166 3.57212291,0.451747237 3.70389066,0.254483924 C3.80394613,0.104465432 3.91707483,-0.0326092717 4.12935294,0.00686927856 C4.38848755,0.0550201661 4.17478563,0.265356705 4.26785146,0.402690284" id="Fill-530"></path>
        </g>
        <g id="36" transform="translate(510.000000, 305.000000)" fill="#000000">
            <path d="M6.21469409,1.48688655 C6.12169298,1.48688655 6.07956095,1.4997009 6.05218485,1.48494498 C5.6541634,1.27098418 5.31283573,1.36049047 4.99014712,1.65327893 C4.78861236,1.83617464 4.57834054,2.03537952 4.35428359,2.1631347 C3.88190008,2.43223603 3.64658203,2.89782405 3.32253433,3.2787597 C2.94334609,3.72473788 2.71074624,4.28099713 2.44882871,4.81318093 C2.06672811,5.59077893 1.90285977,6.40817908 1.82908019,7.25314949 C1.78151177,7.79950674 1.89354024,8.3291665 2.02226621,8.86076784 C2.06459239,9.03589727 2.19953137,9.19374676 2.1562344,9.38965097 C2.37796147,9.47663322 2.11604394,9.75020016 2.35388603,9.86533514 C2.50202767,9.93678485 2.59347553,10.1255053 2.71035792,10.261415 C2.73288011,10.287432 2.76375104,10.3093718 2.77773033,10.3392719 C2.97557612,10.7633104 3.36233647,10.9879498 3.72929283,11.2275393 C4.10731613,11.4745067 4.55271184,11.6075042 4.98102175,11.6346861 C5.63183536,11.6756532 6.30031724,11.7451613 6.94472368,11.5457623 C7.28857538,11.4391702 7.6557259,11.4036395 7.97627878,11.2287042 C8.60029875,10.8881532 9.23344409,10.585851 9.79999365,10.1222046 C10.5257518,9.52808477 11.1136586,8.84989506 11.5617725,8.04472679 C11.7662196,7.6769938 11.926399,7.27664247 12.0483294,6.87337878 C12.172784,6.46215467 12.2576305,6.03267982 12.3024807,5.60514653 C12.3653875,5.00830852 12.2593779,4.41748936 12.0925972,3.84472679 C12.0067799,3.54941429 11.9056242,3.24051081 11.732048,2.9933492 C11.5322607,2.70929779 11.2767503,2.43747827 10.9872625,2.25069942 C10.6637973,2.0417867 10.3449918,1.76550156 9.91202212,1.78938285 C9.81979764,1.55056998 9.67223847,1.83015578 9.540406,1.74608588 C9.29188529,1.58745977 9.00317412,1.51581591 8.72125844,1.42611547 C8.54632316,1.37039247 8.38264897,1.41679594 8.21761569,1.36942168 C7.81726436,1.25486917 7.81629357,1.2628296 7.39574993,1.36534439 C7.36604394,1.37252819 7.32002878,1.31253374 7.27925585,1.28224528 C7.21013603,1.34689949 7.13713307,1.41504853 7.0637418,1.4839742 C6.92006576,1.29117649 6.77172996,1.39757442 6.6259182,1.46863581 C6.56204061,1.40456406 6.49971628,1.34223973 6.43545038,1.27816798 C6.36108832,1.34845275 6.28653211,1.41893167 6.21469409,1.48688655 M7.18120666,13.1362948 C6.91385274,13.1362948 6.71891931,13.1477501 6.52573329,13.1341591 C5.92326473,13.0920271 5.3291449,13.0229073 4.74337382,12.8425356 C4.43233462,12.7468163 4.0863472,12.7233233 3.78656909,12.5940149 C3.47339416,12.4588817 3.1392503,12.3660748 2.86471258,12.126097 C2.6142503,11.9070881 2.32942227,11.7179794 2.05391377,11.5300356 C1.62036162,11.2337523 1.28913011,10.8722323 1.05750104,10.4089742 C0.778886029,10.2763651 0.783545792,9.95425896 0.617541724,9.74107479 C0.460663026,9.53915171 0.402610141,9.26519646 0.291552449,9.03376155 C0.208453336,8.86076784 0.348246236,8.63108034 0.131178928,8.51672198 C0.173116798,8.28936436 0.0525454222,8.08549971 0.0341005258,7.87173307 C0.00245296662,7.50400008 -0.0241465156,7.12325859 0.035847937,6.76290356 C0.154671902,6.04976562 0.315045422,5.34750045 0.587447419,4.66523344 C0.853636399,3.99830482 1.28311125,3.43680334 1.62016746,2.81783145 C1.70113085,2.66930149 1.84247701,2.52853781 1.9908128,2.44893352 C2.14710903,2.36466946 2.07041709,2.08333625 2.3158313,2.10877079 C2.57075918,1.72434032 2.95111236,1.48183847 3.31243817,1.21545534 C3.76734757,0.880146534 4.27293189,0.650264878 4.80336828,0.469504892 C5.02393041,0.394366209 5.26973292,0.354952378 5.48466451,0.34388544 C5.86482353,0.324275602 6.2178006,0.238652452 6.55776916,0.103907629 C7.03364749,-0.0846186283 7.51962198,0.0505145078 7.9982185,0.00430518829 C8.15218485,0.169338472 8.35935016,0.129148014 8.53506206,0.100412807 C8.72747146,0.0691535611 8.84687789,0.211858813 9.02142486,0.224284848 C9.61884535,0.266999345 10.1675325,0.508336253 10.7272865,0.699386549 C11.3384922,0.907910958 11.8877618,1.2372009 12.420528,1.59386695 C13.2084164,2.12119683 13.8361253,2.79162028 14.2240506,3.66707331 C14.3710273,3.99869313 14.4591745,4.34642797 14.5508165,4.69882257 C14.6993465,5.27158514 14.6420702,5.84007627 14.6261493,6.40546088 C14.6121701,6.89648344 14.4510199,7.37721569 14.2700658,7.84047383 C14.1333794,8.18956776 13.9964988,8.5386617 13.8572884,8.88678485 C13.8452507,8.91707331 13.7951582,8.94017797 13.7957407,8.96600082 C13.8042836,9.47973973 13.4501416,9.78903152 13.1478394,10.1280293 C13.0793021,10.2049154 12.986301,10.2728703 12.9497995,10.3633473 C12.7047736,10.9716406 12.1578339,11.2787967 11.6794315,11.6519661 C11.1831667,12.0391147 10.6158405,12.3117109 10.0516209,12.5773174 C9.56118078,12.8081698 9.02783203,12.9219457 8.4962307,13.0446528 C8.0296719,13.1524098 7.5702969,13.1112486 7.18120666,13.1362948" id="Fill-239"></path>
        </g>
        <g id="5" transform="translate(217.000000, 225.000000)" fill="#000000">
            <path d="M4.26785146,0.402690284 C4.5571451,0.181739841 4.79181596,0.26017919 5.09495945,0.670626675 C5.41117616,1.09867771 5.47680116,1.62458378 5.64079895,2.11114073 C5.73399421,2.38736114 5.79948977,2.67445434 5.85644244,2.96077091 C5.89850974,3.17175463 5.97591359,3.19583008 6.1663167,3.10664739 C6.85673829,2.78292327 7.55414954,2.47447283 8.25039584,2.16356307 C8.38954155,2.10130345 8.53192321,2.04202091 8.67844687,2.00215404 C8.87066211,1.94999058 9.07905708,1.90649946 8.90263326,2.24549724 C9.4038167,2.1055749 9.84105782,2.46761262 9.8242309,2.93371839 C9.81750013,3.11596691 9.70475974,3.14301943 9.60379821,3.20074872 C8.62731892,3.75914369 7.64915693,4.31469102 6.66957113,4.86739073 C6.24682705,5.10594472 6.27685664,5.16419176 6.46156448,5.60894028 C6.64446019,6.04915848 6.72988918,6.53700981 6.80845797,7.01217623 C6.95808815,7.91604088 7.16428267,8.79958378 7.55376122,9.63381085 C7.62792912,9.79288999 7.71724125,9.99546025 7.55660886,10.1164847 C7.4285948,10.2129159 7.22473016,10.3351052 7.05633149,10.1207561 C7.03665693,10.0955157 6.99666063,10.0741585 6.96481892,10.0720875 C6.21123164,10.0244543 5.97850235,9.4459965 5.75315102,8.87181011 C5.41596537,8.0128604 5.1792235,7.1207746 4.93186773,6.23373688 C4.85433445,5.95570434 4.78845057,5.90121099 4.51779599,6.04656972 C3.70078415,6.48458747 2.89218578,6.93813777 2.07258519,7.37149576 C1.4850667,7.68201721 0.939356637,7.46559709 0.387821874,7.36670656 C0.234049685,7.33913629 0.0820896257,7.06006824 0.0133581168,6.86655863 C-0.0549850785,6.67382564 0.154057081,6.56173244 0.297085927,6.4662073 C1.546938,5.63159191 2.79510738,4.79309339 4.1340127,4.10409561 C4.33606522,4.000157 4.38382779,3.91343363 4.32195649,3.67358525 C4.08262587,2.74525685 3.88044392,1.80735005 3.67308445,0.870996497 C3.62804007,0.667520166 3.57212291,0.451747237 3.70389066,0.254483924 C3.80394613,0.104465432 3.91707483,-0.0326092717 4.12935294,0.00686927856 C4.38848755,0.0550201661 4.17478563,0.265356705 4.26785146,0.402690284" id="Fill-530"></path>
        </g>
    </g>
</svg>